<svg xmlns="http://www.w3.org/2000/svg" xml:space="preserve" fill-rule="nonzero" stroke-linecap="round" stroke-linejoin="round" stroke-miterlimit="10" clip-rule="evenodd" version="1.1" viewBox="0 0 300 300"><defs><linearGradient id="a" x1="385" x2="650" y1="337.5" y2="337.5" gradientTransform="translate(-365 -145)" gradientUnits="userSpaceOnUse"><stop offset="0" stop-color="#b163b5"/><stop offset="1" stop-color="#c4c4c4"/></linearGradient></defs><path d="M110 245h20v-5h20v-5h15v-5h5v-10h5v30h5v-5h10v-5h5v-5h15v10h15v-10h10v-20l5-5h20v-10h10l5-5 10-5v-20h-5l-10-10v-15l-10-10h-5l-10-5h-45l-10 10v10h-20v15h-5l-10 10v5l-10 10h-20v5h-10l-5-5v-15l5-10 2.409-3.742L115 146.475 110 145l-20 5H75v15l10 5h15v20l-15 15v5l-10 10H65v-10h-5l-5-5H20v15h10l10 5 5 5v5l-10 10h-5v10h30v-20h10l15 10h25Z" fill="url(#a)" fill-rule="nonzero" stroke="#000" stroke-linecap="butt" stroke-linejoin="round" stroke-width=".191" opacity="1"/><path d="M110 205v-25l5-5v-10l5-30 15-65 5-10 30-30h35l10 5 15 10v10h10v30l5 15h-5l-15 15-20 10-30 30h-10v10l-10 10v5l-15 15-30 10Z" fill="#fff" fill-rule="nonzero" opacity="1"/><g fill-rule="nonzero" stroke="#f216bf" stroke-linecap="butt" stroke-linejoin="round" stroke-width="1.05"><path d="M145 25h5v5h-5v-5Zm-10 5h5v5h-5v-5Zm-15 65h5v5h-5v-5Zm5-5h5v5h-5v-5Zm-10 20h5v5h-5v-5Zm85 5h5v5h-5v-5Zm5 0h5v5h-5v-5Zm-60 0h5v5h-5v-5Zm-25 5h5v5h-5v-5Zm10 75h5v5h-5v-5Zm75-70h5v5h-5v-5Zm5 0h5v5h-5v-5Zm-60 0h5v5h-5v-5Zm-35-5h5v5h-5v-5Zm10 75h5v5h-5v-5Zm75-70.166h5V130h-5v-5.166ZM195 130h5v5.166h-5V130Zm-5 5h5v5.166h-5V135Z" fill="#000" opacity="1"/><path d="M205 125h5v5h-5v-5Zm-60 0h5v5h-5v-5Zm-20-15h5v5h-5v-5Zm85 5h5v5h-5v-5Zm5 0h5v5h-5v-5Zm-60 0h5v5h-5v-5Zm-25 5h5v5h-5v-5Zm85 5h5v5h-5v-5Zm5 0h5v5h-5v-5Zm-95-5h5v5h-5v-5Zm10 75h5v5h-5v-5Zm75-70h5v5h-5v-5Z" fill="#000" opacity="1"/><path d="M215 125h5v5h-5v-5Zm-60 0h5v5h-5v-5Zm-20-25h5v5h-5v-5Zm0 20h5v5h-5v-5Zm5-5h5v5h-5v-5Zm0-5h5v5h-5v-5Zm75-75h5v5h-5v-5Zm-5-10h5v5h-5v-5Zm10 10h5v5h-5v-5Zm0 5h5v5h-5v-5Zm-75-5h5v5h-5v-5Zm-10 5h5v5h-5v-5Zm-5 5h5v5h-5v-5Zm-10 60h5v5h-5v-5Zm30 5h5v5h-5v-5Zm-25 5h5v5h-5v-5Zm10 75h5v5h-5v-5Zm75-70h5v5h-5v-5Zm5 0h5v5h-5v-5Zm-60 0h5v5h-5v-5Zm-35-5h5v5h-5v-5Zm10 75h5v5h-5v-5Zm75-70h5v5h-5v-5Z" fill="#000" opacity="1"/><path d="M210 120h5v5h-5v-5Zm-60 0h5v5h-5v-5Zm-25-20h5v5h-5v-5Zm-10 20h5v5h-5v-5Zm10 75h5v5h-5v-5Zm50-50h5v5h-5v-5Zm30-20h5v5h-5v-5Zm-60 0h5v5h-5v-5Zm-25 5h5v5h-5v-5Zm25 10h5v5h-5v-5Zm-30-10h5v5h-5v-5Zm25 10h5v5h-5v-5Zm-15-20h5v5h-5v-5Zm10 75h5v5h-5v-5Zm75-70h5v5h-5v-5Zm5 0h5v5h-5v-5Zm-60 0h5v5h-5v-5Zm-25 5h5v5h-5v-5Zm25 10h5v5h-5v-5Zm-30-10h5v5h-5v-5Zm25 10h5v5h-5v-5Zm-15-30h5v5h-5v-5Zm0 20h5v5h-5v-5Zm5-5h5v5h-5v-5Zm0-5h5v5h-5v-5Zm-5-70h5v5h-5v-5Zm10-30h5v5h-5v-5Zm-10 5h5v5h-5v-5Zm-15 65h5v5h-5v-5Zm5-5h5v5h-5v-5Zm-10 20h5v5h-5v-5Zm30 5h5v5h-5v-5Zm-25 5h5v5h-5v-5Zm10 75h5v5h-5v-5Zm75-70h5v5h-5v-5Z" fill="#000" opacity="1"/><path d="M210 120h5v5h-5v-5Zm-60 0h5v5h-5v-5Zm-35-5h5v5h-5v-5Zm10 75h5v5h-5v-5Zm80-70h5v5h-5v-5Zm-60 0h5v5h-5v-5Zm-20-15h5v5h-5v-5Zm30 5h5v5h-5v-5Zm-25 5h5v5h-5v-5Zm85 5h5v5h-5v-5Zm5 0h5v5h-5v-5Zm-95-5h5v5h-5v-5Zm10 75h5v5h-5v-5Z" fill="#000" opacity="1"/><path d="M210 120h5v5h-5v-5Zm5 0h5v5h-5v-5Zm-60 0h5v5h-5v-5Zm-20-25h5v5h-5v-5Zm0 20h5v5h-5v-5Zm5-5h5v5h-5v-5Zm0-5h5v5h-5v-5Zm75-75h5v5h-5v-5Zm0 5h5v5h-5v-5Zm-5-15h5v5h-5v-5Zm0 10h5v5h-5v-5Zm10 0h5v5h-5v-5Zm0 5h5v5h-5v-5Zm-75-5h5v5h-5v-5Zm-10 5h5v5h-5v-5Zm-5 0h5v5h-5v-5Zm-10 65h5v5h-5v-5Zm5-5h5v5h-5v-5Zm-10 20h5v5h-5v-5Zm10 75h5v5h-5v-5Zm80-70h5v5h-5v-5Zm-60 0h5v5h-5v-5Zm-25 5h5v5h-5v-5Zm25 10h5v5h-5v-5Zm5-5h5v5h-5v-5Zm-35-5h5v5h-5v-5Zm25 10h5v5h-5v-5Zm5-5h5v5h-5v-5Zm-20-15h5v5h-5v-5Zm10 75h5v5h-5v-5Z" fill="#000" opacity="1"/><path d="M210 120h5v5h-5v-5Zm5 0h5v5h-5v-5Zm-60 0h5v5h-5v-5Zm-25 5h5v5h-5v-5Zm25 10h5v5h-5v-5Zm-30-10h5v5h-5v-5Zm25 10h5v5h-5v-5Zm5-5h5v5h-5v-5Zm-20-25h5v5h-5v-5Zm0 20h5v5h-5v-5Zm80-30h5v5h-5v-5Zm-40 20h5v5h-5v-5Zm-35 5h5v5h-5v-5Zm0-5h5v5h-5v-5Zm-5-70h5v5h-5v-5Zm15-25h5v5h-5v-5Zm-10 5h5v5h-5v-5Zm-15 65h5v5h-5v-5Zm5-5h5v5h-5v-5Zm-10 20h5v5h-5v-5Zm30 5h5v5h-5v-5Zm-25 5h5v5h-5v-5Zm10 75h5v5h-5v-5Z" fill="#000" opacity="1"/><path d="M210 120h5v5h-5v-5Zm5 0h5v5h-5v-5Zm-60 0h5v5h-5v-5Zm-35-5h5v5h-5v-5Zm10 75h5v5h-5v-5Zm75-70h5v5h-5v-5Z" fill="#000" opacity="1"/><path d="M210 120h5v5h-5v-5Zm-60 0h5v5h-5v-5Zm-20-15h5v5h-5v-5Zm10-10h5v5h-5v-5Zm0 20h5v5h-5v-5Zm-30 30h5v5h-5v-5Zm-5 0h5v5h-5v-5Zm40-35h5v5h-5v-5Zm0-5h5v5h-5v-5Zm65-85h5v5h-5v-5Zm0 10h5v5h-5v-5Zm10 0h5v5h-5v-5Z" fill="#000" opacity="1"/><path d="M220 30h5v5h-5v-5Zm5 0h5v5h-5v-5Zm-5 5h5v5h-5v-5Zm-5-15h5v5h-5v-5Zm-65 20h5v5h-5v-5Zm0-10h5v5h-5v-5Zm-10 5h5v5h-5v-5Zm-15 65h5v5h-5v-5Zm5-5h5v5h-5v-5Zm-10 20h5v5h-5v-5Zm10 75h5v5h-5v-5Zm75-70h5v5h-5v-5Zm-95 55h5v5h-5v-5Zm0-5h5v5h-5v-5Zm0-5h5v5h-5v-5Zm5-10h5v5h-5v-5Zm0 5h5v5h-5v-5Zm0 35h5v5h-5v-5Zm0 10h5v5h-5v-5Zm-5 5h5v5h-5v-5Zm0-5h5v5h-5v-5Z" fill="#000" opacity="1"/><path d="M110 210h5v5h-5v-5Zm-5 0h5v5h-5v-5Zm0 5h5v5h-5v-5Zm5 0h5v5h-5v-5Z" fill="#000" opacity="1"/><path d="M110 215h5v5h-5v-5Zm10-10h5v5h-5v-5Zm0 5h5v5h-5v-5Zm0 5h5v5h-5v-5Zm0 5h5v5h-5v-5Zm5 0h5v5h-5v-5Zm0-5h5v5h-5v-5Zm-10 0h5v5h-5v-5Zm0-5h5v5h-5v-5Zm0-10h5v5h-5v-5Z" fill="#000" opacity="1"/><path d="M115 215h5v5h-5v-5Zm0 5h5v5h-5v-5Zm0 5h5v5h-5v-5Zm-5-5h5v5h-5v-5Z" fill="#000" opacity="1"/><path d="M110 220h5v5h-5v-5Zm0-5h5v5h-5v-5Zm-5 5h5v5h-5v-5Zm-10 0h5v5h-5v-5Z" fill="#000" opacity="1"/><path d="M110 220h5v5h-5v-5Zm0 5h5v5h-5v-5Zm-5 0h5v5h-5v-5Z" fill="#000" opacity="1"/><path d="M105 225h5v5h-5v-5Zm-5 0h5v5h-5v-5Zm0-10h5v5h-5v-5Z" fill="#000" opacity="1"/><path d="M100 215h5v5h-5v-5Zm25-15h5v5h-5v-5Zm-5 5h5v5h-5v-5Zm-20 5h5v5h-5v-5Zm-5 5h5v5h-5v-5Zm30-10h5v5h-5v-5Zm5 5h5v5h-5v-5Zm0-15h5v5h-5v-5Zm-5 15h5v5h-5v-5Zm5 5h5v5h-5v-5Zm15-30h5v5h-5v-5Zm-15 5h5v5h-5v-5Zm20-10h5v5h-5v-5Zm-25 15h5v5h-5v-5Zm-5 0h5v5h-5v-5Zm35-25h5v5h-5v-5Zm5-5h5v5h-5v-5Zm5-5h5v5h-5v-5Zm0-5h5v5h-5v-5Zm-10 20h5v5h-5v-5Zm-25 25h5v5h-5v-5Zm5-5h5v5h-5v-5Zm-15 5h5v5h-5v-5Zm5-10h5v5h-5v-5Z" fill="#000" opacity="1"/><path d="M120 200h5v5h-5v-5Zm10 5h5v5h-5v-5Zm5-10h5v5h-5v-5Zm0 5h5v5h-5v-5Zm0 5h5v5h-5v-5Zm-60-55h5v5h-5v-5Zm-5 5h5v5h-5v-5Zm30-10h5v5h-5v-5Zm110-25h5v5h-5v-5Zm-60 0h5v5h-5v-5Zm-25 5h5v5h-5v-5Zm25 10h5v5h-5v-5Zm5-5h5v5h-5v-5Zm-35-5h5v5h-5v-5Zm25 10h5v5h-5v-5Zm15 0h5v5h-5v-5Zm-5 5h5v5h-5v-5Zm5 0h5v5h-5v-5Zm0 5h5v5h-5v-5Zm5 0h5v5h-5v-5Z" fill="#000" opacity="1"/><path d="M165 145h5v5h-5v-5Zm-15-15h5v5h-5v-5Zm15-5h5v5h-5v-5Zm-35-10h5v5h-5v-5Zm85 5h5v5h-5v-5Zm5 0h5v5h-5v-5Zm-80-15h5v5h-5v-5Zm0 20h5v5h-5v-5Zm50-30h5v5h-5v-5Zm15 0h5v5h-5v-5Zm-10 0h5v5h-5v-5Zm-50 25h5v5h-5v-5Zm0-5h5v5h-5v-5Zm5-75h5v5h-5v-5Zm5 0h5v5h-5v-5Zm0 5h5v5h-5v-5Zm-5 5h5v5h-5v-5Z" fill="#000" opacity="1"/><path d="M150 50h5v5h-5v-5Zm5-5h5v5h-5v-5Zm-5 0h5v5h-5v-5Zm5 5h5v5h-5v-5Zm5-15h5v5h-5v-5Z" fill="#000" opacity="1"/><path d="M160 35h5v5h-5v-5Zm5-5h5v5h-5v-5Zm-25 15h5v5h-5v-5Zm10-20h5v5h-5v-5Zm-10 5h5v5h-5v-5Zm-15 65h5v5h-5v-5Zm5-5h5v5h-5v-5Zm-10 20h5v5h-5v-5Zm85 5h5v5h-5v-5Zm5 0h5v5h-5v-5Zm-30 30h5v5h-5v-5Zm-30-30h5v5h-5v-5Zm-25 5h5v5h-5v-5Zm10 75h5v5h-5v-5Zm75-70h5v5h-5v-5Zm5 0h5v5h-5v-5Zm-60 0h5v5h-5v-5Zm-35-5h5v5h-5v-5Zm10 75h5v5h-5v-5Zm75-70h5v5h-5v-5Z" fill="#000" opacity="1"/><path d="M210 125h5v5h-5v-5Zm-60 0h5v5h-5v-5Zm-20-15h5v5h-5v-5Zm85 5h5v5h-5v-5Zm5 0h5v5h-5v-5Zm-80-15h5v5h-5v-5Zm0 20h5v5h-5v-5Zm70-25h5v5h-5v-5Zm-25-15h5v5h-5v-5Zm-70 55h5v5h-5v-5Zm30-20h5v5h-5v-5Zm0-5h5v5h-5v-5Zm65-85h5v5h-5v-5Zm5 5h5v5h-5v-5Zm5 5h5v5h-5v-5Zm5 0h5v5h-5v-5Z" fill="#000" opacity="1"/><path d="M225 35h5v5h-5v-5Zm-5 5h5v5h-5v-5Z" fill="#000" opacity="1"/><path d="M220 40h5v5h-5v-5Zm10-10h5v10h-5V30Z" fill="#000" opacity="1"/><path d="M230 35h5v5h-5v-5Zm-5 0h5v5h-5v-5Zm5 5h5v5h-5v-5Zm-5 0h5v5h-5v-5Zm0 5h5v5h-5v-5Zm5 5h5v5h-5v-5Zm5 5h5v5h-5v-5Zm0 5h5v5h-5v-5Zm0 5h5v5h-5v-5Zm-15-5h5v5h-5v-5Z" fill="#000" opacity="1"/><path d="M220 60h5v5h-5v-5Z" fill="#000" opacity="1"/><path d="M220 60h5v5h-5v-5Z" fill="#000" opacity="1"/><path d="M220 60h5v5h-5v-5Z" fill="#000" opacity="1"/><path d="M220 60h5v5h-5v-5Zm-40 0h5v5h-5v-5Zm-10 5h5v5h-5v-5Zm15 0h5v5h-5v-5Z" fill="#000" opacity="1"/><path d="M185 65h5v5h-5v-5Zm-5 0h5v5h-5v-5Zm5 5h5v5h-5v-5Zm0 5h5v5h-5v-5Zm-5 5h5v5h-5v-5Z" fill="#000" opacity="1"/><path d="M180 80h5v5h-5v-5Zm-5 0h5v5h-5v-5Zm0 5h5v5h-5v-5Zm40-15h5v5h-5v-5Z" fill="#000" opacity="1"/><path d="M215 70h5v5h-5v-5Zm-10 5h5v5h-5v-5Zm0 5h5v5h-5v-5Zm5 0h5v5h-5v-5Zm-10 0h5v5h-5v-5Zm15-15h5v5h-5v-5Zm-10-35h5v5h-5v-5Zm20 45h5v5h-5v-5Zm-5 5h5v5h-5v-5Zm5 0h5v5h-5v-5Zm-5-5h5v5h-5v-5Z" fill="#000" opacity="1"/><path d="M220 75h5v5h-5v-5Zm-5 0h5v5h-5v-5Z" fill="#000" opacity="1"/><path d="M220 75h5v5h-5v-5Z" fill="#000" opacity="1"/><path d="M220 75h5v5h-5v-5Zm10-10h5v5h-5v-5Zm.431 5H240v5h-9.569v-5Zm0 5H240v5h-9.569v-5Z" fill="#000" opacity="1"/><path d="M225.431 75H235v5h-9.569v-5ZM235 75h5v5h-5v-5Zm0 5h5v5h-5v-5Zm5 10h5v5h-5v-5Zm0-5h5v5h-5v-5Z" fill="#000" opacity="1"/><path d="M230 75h5v5h-5v-5Zm0 5h5v5h-5v-5Zm10 15h5v5h-5v-5Zm-15-15h5v5h-5v-5Zm0-20h5v5h-5v-5Zm0 5h5v5h-5v-5Z" fill="#000" opacity="1"/><path d="M225 65h5v5h-5v-5Zm-5 0h5v5h-5v-5Zm10 10h5v5h-5v-5Zm0-5h5v5h-5v-5Zm-10 0h5v5h-5v-5Zm-10-40h5v5h-5v-5Zm15-5h5v5h-5v-5Zm-5-5h5v5h-5v-5Zm-5 5h5v5h-5v-5Z" fill="#000" opacity="1"/><path d="M215 25h5v5h-5v-5Z" fill="#000" opacity="1"/><path d="M215 25h5v5h-5v-5Zm5 0h5v5h-5v-5Zm-70 10h5v5h-5v-5Zm-10 5h5v5h-5v-5Zm-10 0h5v5h-5v-5Zm0 5h5v5h-5v-5Zm-5 60h5v5h-5v-5Zm105 0h5v5h-5v-5Zm5-5h5v5h-5v-5Zm-10 10h5v5h-5v-5Zm-40 25h5v5h-5v-5Zm-30-25h5v5h-5v-5Zm-25 5h5v5h-5v-5Zm85 5h5v5h-5v-5Zm5 0h5v5h-5v-5Zm-95-5h5v5h-5v-5Zm10 75h5v5h-5v-5Zm75-70h5v5h-5v-5Zm-35 30h5v5h-5v-5Zm-5 0h5v5h-5v-5Zm10 0h5v5h-5v-5Z" fill="#000" opacity="1"/><path d="M215 120h5v5h-5v-5Zm10 40h5v5h-5v-5Zm-20-35h5v5h-5v-5Zm40 5h5v5h-5v-5Zm5 0h5v5h-5v-5Zm10 5h5v5h-5v-5Zm5 5h5v5h-5v-5Zm5 5h5v5h-5v-5Zm0 10h5v5h-5v-5Zm0 5h5v5h-5v-5Zm5 5h5v5h-5v-5Zm5 5h5v5h-5v-5Zm5 5h5v5h-5v-5Zm0 5h5v5h-5v-5Zm0 5h5v5h-5v-5Zm-15 10h5v5h-5v-5Zm5-5h5v5h-5v-5Zm5 0h5v5h-5v-5Zm-15 5h5v5h-5v-5Zm0 5h5v5h-5v-5Zm-5 0h5v5h-5v-5Zm20-25h5v5h-5v-5Zm-10-25h5v5h-5v-5Zm-15-15h5v5h-5v-5Zm-90-60h5v5h-5v-5Zm5 0h5v5h-5v-5Zm-5-5h5v5h-5v-5Zm0-5h5v5h-5v-5Zm5-5h5v5h-5v-5Zm-40 40h5v5h-5v-5Zm-10 20h5v5h-5v-5Zm10 75h5v5h-5v-5Zm5 0h5v5h-5v-5Zm5-5h5v5h-5v-5Zm0 5h5v5h-5v-5Zm-30-5h5v5h-5v-5Zm-5-5h5v5h-5v-5Zm0 5h5v5h-5v-5Z" fill="#000" opacity="1"/><path d="M105 185h5v5h-5v-5Zm5 10h5v5h-5v-5Zm-5 0h5v5h-5v-5Zm-5 0h5v5h-5v-5Zm5 5h5v5h-5v-5Zm5 0h5v5h-5v-5Z" fill="#000" opacity="1"/><path d="M110 200h5v5h-5v-5Zm-10 0h5v5h-5v-5Zm0 5h5v5h-5v-5Zm-5 5h5v5h-5v-5Zm10-10h5v5h-5v-5Zm0 5h5v5h-5v-5Z" fill="#000" opacity="1"/><path d="M100 205h5v5h-5v-5Zm-5 0h5v5h-5v-5Zm5 15h5v5h-5v-5Zm-5 5h5v5h-5v-5Zm-5 0h5v5h-5v-5Zm5-5h5v5h-5v-5Z" fill="#000" opacity="1"/><path d="M95 225h5v5h-5v-5Zm-5-5h5v5h-5v-5Zm115-95h5v5h-5v-5Zm15 35h5v5h-5v-5Zm-55-10h5v5h-5v-5Zm65-25h5v5h-5v-5Zm0-5h5v5h-5v-5Zm-5 5h5v5h-5v-5Zm0-5h5v5h-5v-5Zm-5 0h5v5h-5v-5Zm5-5h5v5h-5v-5Zm-45 25h5v5h-5v-5Zm30-15h5v5h-5v-5Z" fill="#000" opacity="1"/><path d="M225 120h5v5h-5v-5Zm10 0h5v5h-5v-5Zm5 0h5v5h-5v-5Z" fill="#000" opacity="1"/><path d="M235 120h5v5h-5v-5Z" fill="#000" opacity="1"/><path d="M235 120h5v5h-5v-5Zm-5-5h5v5h-5v-5Zm0 10h5v5h-5v-5Zm5 0h5v5h-5v-5Zm5 0h5v5h-5v-5Zm-5-10h5v5h-5v-5Zm-5-5h5v5h-5v-5Zm-80 15h5v5h-5v-5Zm0-10h5v5h-5v-5Zm-25 15h5v5h-5v-5Zm25 10h5v5h-5v-5Zm10 14.754h5V150h-5v4.754ZM150 145h5v5h-5v-5Zm5 0h5v5h-5v-5Zm-35-15h5v5h-5v-5Zm25 10h5v5h-5v-5Zm-15-20h5v5h-5v-5Zm85 5h5v5h-5v-5Zm5 45h5v5h-5v-5Zm10-10h5v5h-5v-5Zm-10 5h5v5h-5v-5ZM85 150h5v5h-5v-5Zm135-25h5v5h-5v-5Zm-45-65h5v5h-5v-5Zm-10 25h5v5h-5v-5Zm5-5h5v5h-5v-5Zm5-15h5v5h-5v-5Zm0 10h5v5h-5v-5Zm0-5h5v5h-5v-5Zm5-5h5v5h-5v-5Z" fill="#000" opacity="1"/><path d="M225 70h5v5h-5v-5Zm-45 0h5v5h-5v-5Z" fill="#6ed75c" opacity="1"/><path d="M170 85h5v5h-5v-5Zm-5-5h5v5h-5v-5Zm-5-5h5v5h-5v-5Zm0-5h5v5h-5v-5Zm10 0h5v5h-5v-5Zm0 5h5v5h-5v-5Zm10 0h5v5h-5v-5Zm-40 35h5v5h-5v-5Zm20-30h5v5h-5v-5Zm-45 70h5v5h-5v-5Z" fill="#000" opacity="1"/><path d="M115 150h5v5h-5v-5Z" fill="#000" opacity="1"/><path d="M115 150h5v5h-5v-5Zm-35 0h5v5h-5v-5Zm10-5h5v5h-5v-5Zm5 0h5v5h-5v-5Zm20 0h5v5h-5v-5Zm0-5h5v5h-5v-5Zm35-25h5v5h-5v-5Zm-10 15h5v5h-5v-5Zm55-15h5v5h-5v-5Zm-30 20h5v5h-5v-5Zm10 0h5v5h-5v-5Zm-10 5h5v5h-5v-5Zm15-5h5v5h-5v-5Z" fill="#000" opacity="1"/><path d="M169.908 144.908h4.932v4.932h-4.932v-4.932ZM160 130h5v5h-5v-5Zm-15-5h5v5h-5v-5Zm55-30h5v5h-5v-5Zm-35 35h5v5h-5v-5Zm5 0h5v5h-5v-5Zm5 0h5v5h-5v-5Zm-15-5h5v5h-5v-5Zm-15-5h5v5h-5v-5Zm40-5h5v5h-5v-5Zm5 0h5v5h-5v-5Zm-55 20h5v5h-5v-5Zm45-20h5v5h-5v-5Zm-10 20h5v5h-5v-5Z" fill="#000" opacity="1"/><path d="M170 140h5v5h-5v-5Zm5 0h5v5h-5v-5Zm10 5h5v5h-5v-5Zm0-5h5v5h-5v-5Zm5 5h5v5h-5v-5Zm0-5h5v5h-5v-5Zm-60-5h5v5h-5v-5Zm10-85h5v5h-5v-5Zm15-30h5v5h-5v-5Zm-10 5h5v5h-5v-5Zm10 5h5v5h-5v-5Zm-10 5h5v5h-5v-5Zm0 10h5v5h-5v-5Zm-10 15h5v5h-5v-5Zm20-35h5v5h-5v-5Zm5 0h5v5h-5v-5Z" fill="#000" opacity="1"/><path d="M160 25h5v5h-5v-5Z" fill="#000" opacity="1"/><path d="M160 25h5v5h-5v-5Zm0 5h5v5h-5v-5Z" fill="#000" opacity="1"/><path d="M160 30h5v5h-5v-5Zm10-5h5v5h-5v-5Zm5 0h5v5h-5v-5Zm10 0h5v5h-5v-5Zm5 0h5v5h-5v-5Zm5 0h5v5h-5v-5Zm5 0h5v5h-5v-5Zm-20 0h5v5h-5v-5Zm-35 5h5v5h-5v-5Zm10 5h5v5h-5v-5Zm-10 5h5v5h-5v-5Zm-15 40h5v5h-5v-5Zm0-5h5v5h-5v-5Zm0-5h5v5h-5v-5Zm15-20h5v5h-5v-5Zm-10 15h5v5h-5v-5Zm5-10h5v5h-5v-5Z" fill="#000" opacity="1"/><path d="M260 190h5v5h-5v-5Zm-10-5h5v5h-5v-5Zm5 5h5v5h-5v-5Zm-35 25h5v5h-5v-5Zm50-25h5v5h-5v-5Zm-45-10h5v5h-5v-5Zm55 5h5v5h-5v-5Zm-15 5h5v5h-5v-5Zm-50 30h5v5h-5v-5Zm-5 0h5v5h-5v-5Zm-10 10h5v5h-5v-5Zm5-10h5v5h-5v-5Zm0 5h5v5h-5v-5Zm-5-5h5v5h-5v-5Zm35-10h5v5h-5v-5Zm5-5h5v5h-5v-5Zm-35 30h5v5h-5v-5Zm5 0h5v5h-5v-5Zm0 5h5v5h-5v-5Zm-20 0h5v5h-5v-5Zm-20 5h5v5h-5v-5Zm0-25h5v5h-5v-5Zm0 5h5v5h-5v-5Zm0 15h5v5h-5v-5Z" fill="#0a0a0a" opacity="1"/><path d="M170 220h5v5h-5v-5ZM35 255h5v5h-5v-5Zm0-50h5v5h-5v-5Zm50 40h5v5h-5v-5Zm-10-10h5v5h-5v-5Zm-5 0h5v5h-5v-5Zm0-5h5v5h-5v-5Zm-5 0h5v5h-5v-5Zm-25 25h5v5h-5v-5Zm0-50h5v5h-5v-5Zm35-40h5v5h-5v-5Zm25 10h5v5h-5v-5Zm-75 30h5v5h-5v-5Zm-5 0h5v5h-5v-5Zm0 5h5v5h-5v-5Zm0 40h5v5h-5v-5Zm30-20h5v5h-5v-5Zm120-5h5v5h-5v-5Zm0 5h5v5h-5v-5Zm5 20h5v5h-5v-5ZM60 240h5v5h-5v-5Zm0 5h5v5h-5v-5Zm30 0h5v5h-5v-5Zm-10-5h5v5h-5v-5Zm-5 0h5v5h-5v-5Z" fill="#0a0a0a" opacity="1"/><path d="M75 240h5v5h-5v-5Zm-30 15h5v5h-5v-5Zm0-50h5v5h-5v-5Zm60-25h5v5h-5v-5Zm0-5h5v5h-5v-5Zm-25-10h5v5h-5v-5Zm15 5h5v5h-5v-5Zm-75 45h5v5h-5v-5Zm10 25h5v5h-5v-5Zm30 10h5v5h-5v-5Zm-30 5h5v5h-5v-5Zm0-50h5v5h-5v-5Zm-5 40h5v5h-5v-5Zm-5 0h5v5h-5v-5Zm25-15h5v5h-5v-5Zm-5 5h5v5h-5v-5Zm-5 5h5v5h-5v-5Zm130-10h5v5h-5v-5ZM25 255h5v5h-5v-5Zm0-5h5v5h-5v-5Zm80-5h5v5h-5v-5Zm5 0h5v5h-5v-5Zm-55 10h5v5h-5v-5Zm0-50h5v5h-5v-5Zm-20 15h5v5h-5v-5Zm145 25h5v5h-5v-5Zm0 5h5v5h-5v-5Zm-20-15h5v5h-5v-5Zm5 5h5v5h-5v-5Zm0-5h5v5h-5v-5Zm-5 5h5v5h-5v-5Z" fill="#0a0a0a" opacity="1"/><path d="M160 240h5v5h-5v-5Z" fill="#0a0a0a" opacity="1"/><path d="M160 240h5v5h-5v-5Zm-100-5h5v5h-5v-5Zm-5-5h5v5h-5v-5Zm40 15h5v5h-5v-5Z" fill="#0a0a0a" opacity="1"/><path d="M95 245h5v5h-5v-5Zm5 0h5v5h-5v-5Zm15 0h5v5h-5v-5Zm5 0h5v5h-5v-5Zm5 0h5v5h-5v-5Zm5-5h5v5h-5v-5Zm0 5h5v5h-5v-5Zm5-5h5v5h-5v-5Zm0 5h5v5h-5v-5Zm10-5h5v5h-5v-5Z" fill="#0a0a0a" opacity="1"/><path d="M145 240h5v5h-5v-5Zm5-5h5v5h-5v-5Zm0 5h5v5h-5v-5Zm5-5h5v5h-5v-5Zm0 5h5v5h-5v-5Zm-15 0h5v5h-5v-5Zm-90 15h5v5h-5v-5Zm0-50h5v5h-5v-5Zm35-35h5v5h-5v-5Zm5 0h5v5h-5v-5Zm10 10h5v5h-5v-5Zm0 5h5v5h-5v-5Zm-5 5h5v5h-5v-5Zm-5 5h5v5h-5v-5Zm-5 5h5v5h-5v-5Zm0 5h5v5h-5v-5Zm-5 5h5v5h-5v-5Zm-5 5h5v5h-5v-5Zm-5 0h5v5h-5v-5Zm-5 0h5v5h-5v-5Zm-5 5h5v5h-5v-5Zm0-5h5v5h-5v-5Zm0-5h5v5h-5v-5Zm-35 5h5v5h-5v-5Zm5 5h5v5h-5v-5Zm10 5h5v5h-5v-5Zm130 10h5v5h-5v-5Zm15 10h5v5h-5v-5Zm30-10h5v5h-5v-5Zm-20 0h5v5h-5v-5Zm25-25h5v5h-5v-5Zm5 0h5v5h-5v-5Zm5 0h5v5h-5v-5Zm-5 5h5v5h-5v-5Zm20-10h5v5h-5v-5Zm-20 30h5v5h-5v-5Zm-5 5h5v5h-5v-5Zm0-5h5v5h-5v-5Zm-5 5h5v5h-5v-5Zm15-10h5v5h-5v-5Zm0-5h5v5h-5v-5Zm0-5h5v5h-5v-5Zm0-5h5v5h-5v-5Zm-10-35h5v5h-5v-5Zm-20 35h5v5h-5v-5Zm0 10h5v5h-5v-5Zm30-45h5v5h-5v-5Zm5 0h5v5h-5v-5Zm5 0h5v5h-5v-5Zm5 5h5v5h-5v-5Zm10 20h5v5h-5v-5Zm-5 0h5v5h-5v-5Z" fill="#0a0a0a" opacity="1"/><path d="M155 120h5v5h-5v-5Z" fill="#000" opacity="1"/></g><g fill="#979ea2" fill-rule="nonzero" stroke="#f216bf" stroke-linecap="butt" stroke-linejoin="round" stroke-width="1.05"><path d="M110 160h5v5h-5v-5Zm-5 5h5v5h-5v-5Zm0-5h5v5h-5v-5Zm-10 5h5v5h-5v-5Zm0-5h5v5h-5v-5Zm5 5h5v5h-5v-5Zm0-5h5v5h-5v-5Zm-5-5h5v5h-5v-5Zm125 65h5v5h-5v-5Zm5 5h5v5h-5v-5Z" opacity="1"/><path d="M220 220h5v5h-5v-5Zm0 10h5v5h-5v-5Zm-5-5h5v5h-5v-5Zm5 0h5v5h-5v-5Zm5-5h5v5h-5v-5Zm-10 10h5v5h-5v-5Zm10 0h5v5h-5v-5ZM40 250h5v5h-5v-5Zm0-5h5v5h-5v-5Zm15 5h5v5h-5v-5Zm0-5h5v5h-5v-5Zm0-5h5v5h-5v-5Zm0-15h5v5h-5v-5Zm0 10h5v5h-5v-5Zm50-80h5v5h-5v-5Zm0 15h5v5h-5v-5Zm-15-5h5v5h-5v-5Zm0-5h5v5h-5v-5Zm5 5h5v5h-5v-5Zm0-5h5v5h-5v-5Zm-5-5h5v5h-5v-5Z" opacity="1"/><path d="M40 250h5v5h-5v-5Zm0-5h5v5h-5v-5Zm15 5h5v5h-5v-5Zm0-5h5v5h-5v-5Zm0-5h5v5h-5v-5Zm0-15h5v5h-5v-5Zm0 10h5v5h-5v-5Zm-25 15h5v5h-5v-5Zm0-5h5v5h-5v-5Zm15 5h5v5h-5v-5Zm0-5h5v5h-5v-5Zm0-5h5v5h-5v-5Zm0-15h5v5h-5v-5Zm0 10h5v5h-5v-5Zm15-5h5v5h-5v-5Zm150-5h5v5h-5v-5Zm0 5h5v5h-5v-5Zm-5 0h5v5h-5v-5Zm25 0h5v5h-5v-5Z" opacity="1"/><path d="M60 230h5v5h-5v-5Zm-25 20h5v5h-5v-5Zm0-5h5v5h-5v-5Zm15 5h5v5h-5v-5Zm0-5h5v5h-5v-5Zm0-5h5v5h-5v-5Zm0-15h5v5h-5v-5Zm0 10h5v5h-5v-5Zm50-80h5v5h-5v-5Zm0 15h5v5h-5v-5Zm-15-5h5v5h-5v-5Zm0-5h5v5h-5v-5Zm20 10h5v5h-5v-5Zm-15-5h5v5h-5v-5Zm0-5h5v5h-5v-5Zm-10 0h5v5h-5v-5Zm0-5h5v5h-5v-5Zm-5 5h5v5h-5v-5Zm0-5h5v5h-5v-5Zm10 0h5v5h-5v-5Zm-55 95h5v5h-5v-5Zm0-5h5v5h-5v-5Zm15 5h5v5h-5v-5Zm0-5h5v5h-5v-5Zm0-5h5v5h-5v-5Zm0-15h5v5h-5v-5Zm0 10h5v5h-5v-5Z" opacity="1"/><path d="M60 230h5v5h-5v-5Z" opacity="1"/></g></svg>