<svg xmlns="http://www.w3.org/2000/svg" xml:space="preserve" stroke-linecap="round" stroke-linejoin="round" stroke-miterlimit="10" clip-rule="evenodd" viewBox="0 0 300 300">
  <defs>
    <linearGradient id="green-a" x1="110" x2="115" y1="162.5" y2="162.5" gradientUnits="userSpaceOnUse">
      <stop offset="0" stop-color="#5e430d" stop-opacity="0"/>
      <stop offset=".837" stop-color="#5e430d" stop-opacity=".331"/>
    </linearGradient>
    <linearGradient id="green-b" x1="105" x2="110" y1="167.5" y2="167.5" gradientUnits="userSpaceOnUse">
      <stop offset="0" stop-color="#5e430d" stop-opacity="0"/>
      <stop offset=".837" stop-color="#5e430d" stop-opacity=".331"/>
    </linearGradient>
    <linearGradient id="green-c" x1="105" x2="110" y1="162.5" y2="162.5" gradientUnits="userSpaceOnUse">
      <stop offset="0" stop-color="#5e430d" stop-opacity="0"/>
      <stop offset=".837" stop-color="#5e430d" stop-opacity=".331"/>
    </linearGradient>
    <linearGradient id="green-d" x1="95" x2="100" y1="167.5" y2="167.5" gradientUnits="userSpaceOnUse">
      <stop offset="0" stop-color="#5e430d" stop-opacity="0"/>
      <stop offset=".837" stop-color="#5e430d" stop-opacity=".331"/>
    </linearGradient>
    <linearGradient id="green-e" x1="95" x2="100" y1="162.5" y2="162.5" gradientUnits="userSpaceOnUse">
      <stop offset="0" stop-color="#5e430d" stop-opacity="0"/>
      <stop offset=".837" stop-color="#5e430d" stop-opacity=".331"/>
    </linearGradient>
    <linearGradient id="green-f" x1="100" x2="105" y1="167.5" y2="167.5" gradientUnits="userSpaceOnUse">
      <stop offset="0" stop-color="#5e430d" stop-opacity="0"/>
      <stop offset=".837" stop-color="#5e430d" stop-opacity=".331"/>
    </linearGradient>
    <linearGradient id="green-g" x1="100" x2="105" y1="162.5" y2="162.5" gradientUnits="userSpaceOnUse">
      <stop offset="0" stop-color="#5e430d" stop-opacity="0"/>
      <stop offset=".837" stop-color="#5e430d" stop-opacity=".331"/>
    </linearGradient>
    <linearGradient id="green-h" x1="95" x2="100" y1="157.5" y2="157.5" gradientUnits="userSpaceOnUse">
      <stop offset="0" stop-color="#5e430d" stop-opacity="0"/>
      <stop offset=".837" stop-color="#5e430d" stop-opacity=".331"/>
    </linearGradient>
    <linearGradient id="green-i" x1="220" x2="225" y1="222.5" y2="222.5" gradientUnits="userSpaceOnUse">
      <stop offset="0" stop-color="#5e430d" stop-opacity="0"/>
      <stop offset=".837" stop-color="#5e430d" stop-opacity=".331"/>
    </linearGradient>
    <linearGradient id="green-j" x1="225" x2="230" y1="227.5" y2="227.5" gradientUnits="userSpaceOnUse">
      <stop offset="0" stop-color="#5e430d" stop-opacity="0"/>
      <stop offset=".837" stop-color="#5e430d" stop-opacity=".331"/>
    </linearGradient>
    <linearGradient id="green-k" x1="220" x2="225" y1="232.5" y2="232.5" gradientUnits="userSpaceOnUse">
      <stop offset="0" stop-color="#5e430d" stop-opacity="0"/>
      <stop offset=".837" stop-color="#5e430d" stop-opacity=".331"/>
    </linearGradient>
    <linearGradient id="green-l" x1="215" x2="220" y1="227.5" y2="227.5" gradientUnits="userSpaceOnUse">
      <stop offset="0" stop-color="#5e430d" stop-opacity="0"/>
      <stop offset=".837" stop-color="#5e430d" stop-opacity=".331"/>
    </linearGradient>
    <linearGradient id="green-m" x1="220" x2="225" y1="227.5" y2="227.5" gradientUnits="userSpaceOnUse">
      <stop offset="0" stop-color="#5e430d" stop-opacity="0"/>
      <stop offset=".837" stop-color="#5e430d" stop-opacity=".331"/>
    </linearGradient>
    <linearGradient id="green-n" x1="225" x2="230" y1="222.5" y2="222.5" gradientUnits="userSpaceOnUse">
      <stop offset="0" stop-color="#5e430d" stop-opacity="0"/>
      <stop offset=".837" stop-color="#5e430d" stop-opacity=".331"/>
    </linearGradient>
    <linearGradient id="green-o" x1="215" x2="220" y1="232.5" y2="232.5" gradientUnits="userSpaceOnUse">
      <stop offset="0" stop-color="#5e430d" stop-opacity="0"/>
      <stop offset=".837" stop-color="#5e430d" stop-opacity=".331"/>
    </linearGradient>
    <linearGradient id="green-p" x1="225" x2="230" y1="232.5" y2="232.5" gradientUnits="userSpaceOnUse">
      <stop offset="0" stop-color="#5e430d" stop-opacity="0"/>
      <stop offset=".837" stop-color="#5e430d" stop-opacity=".331"/>
    </linearGradient>
    <linearGradient id="green-q" x1="40" x2="45" y1="252.5" y2="252.5" gradientUnits="userSpaceOnUse">
      <stop offset="0" stop-color="#5e430d" stop-opacity="0"/>
      <stop offset=".837" stop-color="#5e430d" stop-opacity=".331"/>
    </linearGradient>
    <linearGradient id="green-r" x1="40" x2="45" y1="247.5" y2="247.5" gradientUnits="userSpaceOnUse">
      <stop offset="0" stop-color="#5e430d" stop-opacity="0"/>
      <stop offset=".837" stop-color="#5e430d" stop-opacity=".331"/>
    </linearGradient>
    <linearGradient id="green-s" x1="55" x2="60" y1="252.5" y2="252.5" gradientUnits="userSpaceOnUse">
      <stop offset="0" stop-color="#5e430d" stop-opacity="0"/>
      <stop offset=".837" stop-color="#5e430d" stop-opacity=".331"/>
    </linearGradient>
    <linearGradient id="green-t" x1="55" x2="60" y1="247.5" y2="247.5" gradientUnits="userSpaceOnUse">
      <stop offset="0" stop-color="#5e430d" stop-opacity="0"/>
      <stop offset=".837" stop-color="#5e430d" stop-opacity=".331"/>
    </linearGradient>
    <linearGradient id="green-u" x1="55" x2="60" y1="242.5" y2="242.5" gradientUnits="userSpaceOnUse">
      <stop offset="0" stop-color="#5e430d" stop-opacity="0"/>
      <stop offset=".837" stop-color="#5e430d" stop-opacity=".331"/>
    </linearGradient>
    <linearGradient id="green-v" x1="55" x2="60" y1="227.5" y2="227.5" gradientUnits="userSpaceOnUse">
      <stop offset="0" stop-color="#5e430d" stop-opacity="0"/>
      <stop offset=".837" stop-color="#5e430d" stop-opacity=".331"/>
    </linearGradient>
    <linearGradient id="green-w" x1="55" x2="60" y1="237.5" y2="237.5" gradientUnits="userSpaceOnUse">
      <stop offset="0" stop-color="#5e430d" stop-opacity="0"/>
      <stop offset=".837" stop-color="#5e430d" stop-opacity=".331"/>
    </linearGradient>
    <linearGradient id="green-x" x1="105" x2="110" y1="157.5" y2="157.5" gradientUnits="userSpaceOnUse">
      <stop offset="0" stop-color="#5e430d" stop-opacity="0"/>
      <stop offset=".837" stop-color="#5e430d" stop-opacity=".331"/>
    </linearGradient>
    <linearGradient id="green-y" x1="105" x2="110" y1="172.5" y2="172.5" gradientUnits="userSpaceOnUse">
      <stop offset="0" stop-color="#5e430d" stop-opacity="0"/>
      <stop offset=".837" stop-color="#5e430d" stop-opacity=".331"/>
    </linearGradient>
    <linearGradient id="green-z" x1="90" x2="95" y1="167.5" y2="167.5" gradientUnits="userSpaceOnUse">
      <stop offset="0" stop-color="#5e430d" stop-opacity="0"/>
      <stop offset=".837" stop-color="#5e430d" stop-opacity=".331"/>
    </linearGradient>
    <linearGradient id="green-A" x1="90" x2="95" y1="162.5" y2="162.5" gradientUnits="userSpaceOnUse">
      <stop offset="0" stop-color="#5e430d" stop-opacity="0"/>
      <stop offset=".837" stop-color="#5e430d" stop-opacity=".331"/>
    </linearGradient>
    <linearGradient id="green-B" x1="90" x2="95" y1="157.5" y2="157.5" gradientUnits="userSpaceOnUse">
      <stop offset="0" stop-color="#5e430d" stop-opacity="0"/>
      <stop offset=".837" stop-color="#5e430d" stop-opacity=".331"/>
    </linearGradient>
    <linearGradient id="green-C" x1="30" x2="35" y1="252.5" y2="252.5" gradientUnits="userSpaceOnUse">
      <stop offset="0" stop-color="#5e430d" stop-opacity="0"/>
      <stop offset=".837" stop-color="#5e430d" stop-opacity=".331"/>
    </linearGradient>
    <linearGradient id="green-D" x1="30" x2="35" y1="247.5" y2="247.5" gradientUnits="userSpaceOnUse">
      <stop offset="0" stop-color="#5e430d" stop-opacity="0"/>
      <stop offset=".837" stop-color="#5e430d" stop-opacity=".331"/>
    </linearGradient>
    <linearGradient id="green-E" x1="45" x2="50" y1="252.5" y2="252.5" gradientUnits="userSpaceOnUse">
      <stop offset="0" stop-color="#5e430d" stop-opacity="0"/>
      <stop offset=".837" stop-color="#5e430d" stop-opacity=".331"/>
    </linearGradient>
    <linearGradient id="green-F" x1="45" x2="50" y1="247.5" y2="247.5" gradientUnits="userSpaceOnUse">
      <stop offset="0" stop-color="#5e430d" stop-opacity="0"/>
      <stop offset=".837" stop-color="#5e430d" stop-opacity=".331"/>
    </linearGradient>
    <linearGradient id="green-G" x1="45" x2="50" y1="242.5" y2="242.5" gradientUnits="userSpaceOnUse">
      <stop offset="0" stop-color="#5e430d" stop-opacity="0"/>
      <stop offset=".837" stop-color="#5e430d" stop-opacity=".331"/>
    </linearGradient>
    <linearGradient id="green-H" x1="45" x2="50" y1="227.5" y2="227.5" gradientUnits="userSpaceOnUse">
      <stop offset="0" stop-color="#5e430d" stop-opacity="0"/>
      <stop offset=".837" stop-color="#5e430d" stop-opacity=".331"/>
    </linearGradient>
    <linearGradient id="green-I" x1="45" x2="50" y1="237.5" y2="237.5" gradientUnits="userSpaceOnUse">
      <stop offset="0" stop-color="#5e430d" stop-opacity="0"/>
      <stop offset=".837" stop-color="#5e430d" stop-opacity=".331"/>
    </linearGradient>
    <linearGradient id="green-J" x1="60" x2="65" y1="232.5" y2="232.5" gradientUnits="userSpaceOnUse">
      <stop offset="0" stop-color="#5e430d" stop-opacity="0"/>
      <stop offset=".837" stop-color="#5e430d" stop-opacity=".331"/>
    </linearGradient>
    <linearGradient id="green-K" x1="210" x2="215" y1="227.5" y2="227.5" gradientUnits="userSpaceOnUse">
      <stop offset="0" stop-color="#5e430d" stop-opacity="0"/>
      <stop offset=".837" stop-color="#5e430d" stop-opacity=".331"/>
    </linearGradient>
    <linearGradient id="green-L" x1="210" x2="215" y1="232.5" y2="232.5" gradientUnits="userSpaceOnUse">
      <stop offset="0" stop-color="#5e430d" stop-opacity="0"/>
      <stop offset=".837" stop-color="#5e430d" stop-opacity=".331"/>
    </linearGradient>
    <linearGradient id="green-M" x1="205" x2="210" y1="232.5" y2="232.5" gradientUnits="userSpaceOnUse">
      <stop offset="0" stop-color="#5e430d" stop-opacity="0"/>
      <stop offset=".837" stop-color="#5e430d" stop-opacity=".331"/>
    </linearGradient>
    <linearGradient id="green-N" x1="35" x2="40" y1="252.5" y2="252.5" gradientUnits="userSpaceOnUse">
      <stop offset="0" stop-color="#5e430d" stop-opacity="0"/>
      <stop offset=".837" stop-color="#5e430d" stop-opacity=".331"/>
    </linearGradient>
    <linearGradient id="green-O" x1="35" x2="40" y1="247.5" y2="247.5" gradientUnits="userSpaceOnUse">
      <stop offset="0" stop-color="#5e430d" stop-opacity="0"/>
      <stop offset=".837" stop-color="#5e430d" stop-opacity=".331"/>
    </linearGradient>
    <linearGradient id="green-P" x1="50" x2="55" y1="252.5" y2="252.5" gradientUnits="userSpaceOnUse">
      <stop offset="0" stop-color="#5e430d" stop-opacity="0"/>
      <stop offset=".837" stop-color="#5e430d" stop-opacity=".331"/>
    </linearGradient>
    <linearGradient id="green-Q" x1="50" x2="55" y1="247.5" y2="247.5" gradientUnits="userSpaceOnUse">
      <stop offset="0" stop-color="#5e430d" stop-opacity="0"/>
      <stop offset=".837" stop-color="#5e430d" stop-opacity=".331"/>
    </linearGradient>
    <linearGradient id="green-R" x1="50" x2="55" y1="242.5" y2="242.5" gradientUnits="userSpaceOnUse">
      <stop offset="0" stop-color="#5e430d" stop-opacity="0"/>
      <stop offset=".837" stop-color="#5e430d" stop-opacity=".331"/>
    </linearGradient>
    <linearGradient id="green-S" x1="50" x2="55" y1="227.5" y2="227.5" gradientUnits="userSpaceOnUse">
      <stop offset="0" stop-color="#5e430d" stop-opacity="0"/>
      <stop offset=".837" stop-color="#5e430d" stop-opacity=".331"/>
    </linearGradient>
    <linearGradient id="green-T" x1="50" x2="55" y1="237.5" y2="237.5" gradientUnits="userSpaceOnUse">
      <stop offset="0" stop-color="#5e430d" stop-opacity="0"/>
      <stop offset=".837" stop-color="#5e430d" stop-opacity=".331"/>
    </linearGradient>
    <linearGradient id="green-U" x1="100" x2="105" y1="157.5" y2="157.5" gradientUnits="userSpaceOnUse">
      <stop offset="0" stop-color="#5e430d" stop-opacity="0"/>
      <stop offset=".837" stop-color="#5e430d" stop-opacity=".331"/>
    </linearGradient>
    <linearGradient id="green-V" x1="100" x2="105" y1="172.5" y2="172.5" gradientUnits="userSpaceOnUse">
      <stop offset="0" stop-color="#5e430d" stop-opacity="0"/>
      <stop offset=".837" stop-color="#5e430d" stop-opacity=".331"/>
    </linearGradient>
    <linearGradient id="green-W" x1="85" x2="90" y1="167.5" y2="167.5" gradientUnits="userSpaceOnUse">
      <stop offset="0" stop-color="#5e430d" stop-opacity="0"/>
      <stop offset=".837" stop-color="#5e430d" stop-opacity=".331"/>
    </linearGradient>
    <linearGradient id="green-X" x1="85" x2="90" y1="162.5" y2="162.5" gradientUnits="userSpaceOnUse">
      <stop offset="0" stop-color="#5e430d" stop-opacity="0"/>
      <stop offset=".837" stop-color="#5e430d" stop-opacity=".331"/>
    </linearGradient>
    <linearGradient id="green-Y" x1="80" x2="85" y1="162.5" y2="162.5" gradientUnits="userSpaceOnUse">
      <stop offset="0" stop-color="#5e430d" stop-opacity="0"/>
      <stop offset=".837" stop-color="#5e430d" stop-opacity=".331"/>
    </linearGradient>
    <linearGradient id="green-Z" x1="80" x2="85" y1="157.5" y2="157.5" gradientUnits="userSpaceOnUse">
      <stop offset="0" stop-color="#5e430d" stop-opacity="0"/>
      <stop offset=".837" stop-color="#5e430d" stop-opacity=".331"/>
    </linearGradient>
    <linearGradient id="green-aa" x1="75" x2="80" y1="162.5" y2="162.5" gradientUnits="userSpaceOnUse">
      <stop offset="0" stop-color="#5e430d" stop-opacity="0"/>
      <stop offset=".837" stop-color="#5e430d" stop-opacity=".331"/>
    </linearGradient>
    <linearGradient id="green-ab" x1="75" x2="80" y1="157.5" y2="157.5" gradientUnits="userSpaceOnUse">
      <stop offset="0" stop-color="#5e430d" stop-opacity="0"/>
      <stop offset=".837" stop-color="#5e430d" stop-opacity=".331"/>
    </linearGradient>
    <linearGradient id="green-ac" x1="85" x2="90" y1="157.5" y2="157.5" gradientUnits="userSpaceOnUse">
      <stop offset="0" stop-color="#5e430d" stop-opacity="0"/>
      <stop offset=".837" stop-color="#5e430d" stop-opacity=".331"/>
    </linearGradient>
    <linearGradient id="green-ad" x1="40" x2="45" y1="242.5" y2="242.5" gradientUnits="userSpaceOnUse">
      <stop offset="0" stop-color="#5e430d" stop-opacity="0"/>
      <stop offset=".837" stop-color="#5e430d" stop-opacity=".331"/>
    </linearGradient>
  </defs>
  <path d="M110 245h20v-5h20v-5h15v-5h5v-10h5v30h5v-5h10v-5h5v-5h15v10h15v-10h10v-20l5-5h20v-10h10l5-5 10-5v-20h-5l-10-10v-15l-10-10h-5l-10-5h-45l-10 10v10h-20v15h-5l-10 10v5l-10 10h-20v5h-10l-5-5v-15l5-10 2.409-3.742L115 146.475 110 145l-20 5H75v15l10 5h15v20l-15 15v5l-10 10H65v-10h-5l-5-5H20v15h10l10 5 5 5v5l-10 10h-5v10h30v-20h10l15 10h25Z" fill="#fba34c" stroke="#000" stroke-linecap="butt" stroke-width=".191"/>
  <path d="M110 205v-25l5-5v-10l5-30 15-65 5-10 30-30h35l10 5 15 10v10h10v30l5 15h-5l-15 15-20 10-30 30h-10v10l-10 10v5l-15 15-30 10Z" fill="#e7fd19"/>
  <g stroke="#f5891d" stroke-linecap="butt" stroke-width=".191">
    <path d="M145 25h5v5h-5v-5Zm-10 5h5v5h-5v-5Zm-15 65h5v5h-5v-5Zm5-5h5v5h-5v-5Zm-10 20h5v5h-5v-5Zm85 5h5v5h-5v-5Zm5 0h5v5h-5v-5Zm-60 0h5v5h-5v-5Zm-25 5h5v5h-5v-5Zm10 75h5v5h-5v-5Zm75-70h5v5h-5v-5Zm5 0h5v5h-5v-5Zm-60 0h5v5h-5v-5Zm-35-5h5v5h-5v-5Zm10 75h5v5h-5v-5Zm75-70.166h5V130h-5v-5.166ZM195 130h5v5.166h-5V130Zm-5 5h5v5.166h-5V135Z" fill="#11ca59"/>
    <path d="M205 125h5v5h-5v-5Zm-60 0h5v5h-5v-5Zm-20-15h5v5h-5v-5Zm85 5h5v5h-5v-5Zm5 0h5v5h-5v-5Zm-60 0h5v5h-5v-5Zm-25 5h5v5h-5v-5Zm85 5h5v5h-5v-5Zm5 0h5v5h-5v-5Zm-95-5h5v5h-5v-5Zm10 75h5v5h-5v-5Zm75-70h5v5h-5v-5Z" fill="#11ca59"/>
    <path d="M215 125h5v5h-5v-5Zm-60 0h5v5h-5v-5Zm-20-25h5v5h-5v-5Zm0 20h5v5h-5v-5Zm5-5h5v5h-5v-5Zm0-5h5v5h-5v-5Zm75-75h5v5h-5v-5Zm-5-10h5v5h-5v-5Zm10 10h5v5h-5v-5Zm0 5h5v5h-5v-5Zm-75-5h5v5h-5v-5Zm-10 5h5v5h-5v-5Zm-5 5h5v5h-5v-5Zm-10 60h5v5h-5v-5Zm30 5h5v5h-5v-5Zm-25 5h5v5h-5v-5Zm10 75h5v5h-5v-5Zm75-70h5v5h-5v-5Zm5 0h5v5h-5v-5Zm-60 0h5v5h-5v-5Zm-35-5h5v5h-5v-5Zm10 75h5v5h-5v-5Zm75-70h5v5h-5v-5Z" fill="#11ca59"/>
    <path d="M210 120h5v5h-5v-5Zm-60 0h5v5h-5v-5Zm-25-20h5v5h-5v-5Zm-10 20h5v5h-5v-5Zm10 75h5v5h-5v-5Zm50-50h5v5h-5v-5Zm-5 0h5v5h-5v-5Zm35-20h5v5h-5v-5Zm-60 0h5v5h-5v-5Zm-25 5h5v5h-5v-5Zm25 10h5v5h-5v-5Zm-30-10h5v5h-5v-5Zm25 10h5v5h-5v-5Zm-15-20h5v5h-5v-5Zm10 75h5v5h-5v-5Zm75-70h5v5h-5v-5Zm5 0h5v5h-5v-5Zm-60 0h5v5h-5v-5Zm-25 5h5v5h-5v-5Zm25 10h5v5h-5v-5Zm-30-10h5v5h-5v-5Zm25 10h5v5h-5v-5Zm-15-30h5v5h-5v-5Zm0 20h5v5h-5v-5Zm5-5h5v5h-5v-5Zm0-5h5v5h-5v-5Zm-5-70h5v5h-5v-5Zm10-30h5v5h-5v-5Zm-10 5h5v5h-5v-5Zm-15 65h5v5h-5v-5Zm5-5h5v5h-5v-5Zm-10 20h5v5h-5v-5Zm30 5h5v5h-5v-5Zm-25 5h5v5h-5v-5Zm10 75h5v5h-5v-5Zm75-70h5v5h-5v-5Z" fill="#11ca59"/>
    <path d="M210 120h5v5h-5v-5Zm-60 0h5v5h-5v-5Zm-35-5h5v5h-5v-5Zm10 75h5v5h-5v-5Zm80-70h5v5h-5v-5Zm-60 0h5v5h-5v-5Zm-20-15h5v5h-5v-5Zm30 5h5v5h-5v-5Zm-25 5h5v5h-5v-5Zm85 5h5v5h-5v-5Zm5 0h5v5h-5v-5Zm-95-5h5v5h-5v-5Zm10 75h5v5h-5v-5Z" fill="#11ca59"/>
    <path d="M210 120h5v5h-5v-5Zm5 0h5v5h-5v-5Zm-60 0h5v5h-5v-5Zm-20-25h5v5h-5v-5Zm0 20h5v5h-5v-5Zm5-5h5v5h-5v-5Zm0-5h5v5h-5v-5Zm75-75h5v5h-5v-5Zm0 5h5v5h-5v-5Zm-5-15h5v5h-5v-5Zm0 10h5v5h-5v-5Zm10 0h5v5h-5v-5Zm0 5h5v5h-5v-5Zm-75-5h5v5h-5v-5Zm-10 5h5v5h-5v-5Zm-5 0h5v5h-5v-5Zm-10 65h5v5h-5v-5Zm5-5h5v5h-5v-5Zm-10 20h5v5h-5v-5Zm10 75h5v5h-5v-5Zm80-70h5v5h-5v-5Zm-60 0h5v5h-5v-5Zm-25 5h5v5h-5v-5Zm25 10h5v5h-5v-5Zm5-5h5v5h-5v-5Zm-35-5h5v5h-5v-5Zm25 10h5v5h-5v-5Zm5-5h5v5h-5v-5Zm-20-15h5v5h-5v-5Zm10 75h5v5h-5v-5Z" fill="#11ca59"/>
    <path d="M210 120h5v5h-5v-5Zm5 0h5v5h-5v-5Zm-60 0h5v5h-5v-5Zm-25 5h5v5h-5v-5Zm25 10h5v5h-5v-5Zm-30-10h5v5h-5v-5Zm25 10h5v5h-5v-5Zm5-5h5v5h-5v-5Zm-20-25h5v5h-5v-5Zm0 20h5v5h-5v-5Zm80-30h5v5h-5v-5Zm-40 20h5v5h-5v-5Zm-35 5h5v5h-5v-5Zm0-5h5v5h-5v-5Zm-5-70h5v5h-5v-5Zm15-25h5v5h-5v-5Zm-10 5h5v5h-5v-5Zm-15 65h5v5h-5v-5Zm5-5h5v5h-5v-5Zm-10 20h5v5h-5v-5Zm30 5h5v5h-5v-5Zm-25 5h5v5h-5v-5Zm10 75h5v5h-5v-5Z" fill="#11ca59"/>
    <path d="M210 120h5v5h-5v-5Zm5 0h5v5h-5v-5Zm-60 0h5v5h-5v-5Zm-35-5h5v5h-5v-5Zm10 75h5v5h-5v-5Zm75-70h5v5h-5v-5Z" fill="#11ca59"/>
    <path d="M210 120h5v5h-5v-5Zm-60 0h5v5h-5v-5Zm-20-15h5v5h-5v-5Zm10-10h5v5h-5v-5Zm0 20h5v5h-5v-5Zm-30 30h5v5h-5v-5Zm-5 0h5v5h-5v-5Zm40-35h5v5h-5v-5Zm0-5h5v5h-5v-5Zm65-85h5v5h-5v-5Zm0 10h5v5h-5v-5Zm10 0h5v5h-5v-5Z" fill="#11ca59"/>
    <path d="M220 30h5v5h-5v-5Zm5 0h5v5h-5v-5Zm-5 5h5v5h-5v-5Zm-5-15h5v5h-5v-5Zm-65 20h5v5h-5v-5Zm0-10h5v5h-5v-5Zm-10 5h5v5h-5v-5Zm-15 65h5v5h-5v-5Zm5-5h5v5h-5v-5Zm-10 20h5v5h-5v-5Zm10 75h5v5h-5v-5Zm75-70h5v5h-5v-5Zm-95 55h5v5h-5v-5Zm0-5h5v5h-5v-5Zm0-5h5v5h-5v-5Zm5-10h5v5h-5v-5Zm0 5h5v5h-5v-5Zm0 35h5v5h-5v-5Zm0 10h5v5h-5v-5Zm-5 5h5v5h-5v-5Zm0-5h5v5h-5v-5Z" fill="#11ca59"/>
    <path d="M110 210h5v5h-5v-5Zm-5 0h5v5h-5v-5Zm0 5h5v5h-5v-5Zm5 0h5v5h-5v-5Z" fill="#11ca59"/>
    <path d="M110 215h5v5h-5v-5Zm10-10h5v5h-5v-5Zm0 5h5v5h-5v-5Zm0 5h5v5h-5v-5Zm0 5h5v5h-5v-5Zm5 0h5v5h-5v-5Zm0-5h5v5h-5v-5Zm-10 0h5v5h-5v-5Zm0-5h5v5h-5v-5Zm0-10h5v5h-5v-5Z" fill="#11ca59"/>
    <path d="M115 215h5v5h-5v-5Zm0 5h5v5h-5v-5Zm0 5h5v5h-5v-5Zm-5-5h5v5h-5v-5Z" fill="#11ca59"/>
    <path d="M110 220h5v5h-5v-5Zm0-5h5v5h-5v-5Zm-5 5h5v5h-5v-5Zm-10 0h5v5h-5v-5Z" fill="#11ca59"/>
    <path d="M110 220h5v5h-5v-5Zm0 5h5v5h-5v-5Zm-5 0h5v5h-5v-5Z" fill="#11ca59"/>
    <path d="M105 225h5v5h-5v-5Zm-5 0h5v5h-5v-5Zm0-10h5v5h-5v-5Z" fill="#11ca59"/>
    <path d="M100 215h5v5h-5v-5Zm25-15h5v5h-5v-5Zm-5 5h5v5h-5v-5Zm-20 5h5v5h-5v-5Zm-5 5h5v5h-5v-5Zm30-10h5v5h-5v-5Zm5 5h5v5h-5v-5Zm0-15h5v5h-5v-5Zm-5 15h5v5h-5v-5Zm5 5h5v5h-5v-5Zm15-30h5v5h-5v-5Zm-15 5h5v5h-5v-5Zm20-10h5v5h-5v-5Zm-25 15h5v5h-5v-5Zm-5 0h5v5h-5v-5Zm35-25h5v5h-5v-5Zm5-5h5v5h-5v-5Zm5-5h5v5h-5v-5Zm0-5h5v5h-5v-5Zm-10 20h5v5h-5v-5Zm-25 25h5v5h-5v-5Zm5-5h5v5h-5v-5Zm-15 5h5v5h-5v-5Zm5-10h5v5h-5v-5Z" fill="#11ca59"/>
    <path d="M120 200h5v5h-5v-5Zm10 5h5v5h-5v-5Zm5-10h5v5h-5v-5Zm0 5h5v5h-5v-5Zm0 5h5v5h-5v-5Zm-60-55h5v5h-5v-5Zm-5 5h5v5h-5v-5Zm30-10h5v5h-5v-5Zm110-25h5v5h-5v-5Zm-60 0h5v5h-5v-5Zm-25 5h5v5h-5v-5Zm25 10h5v5h-5v-5Zm5-5h5v5h-5v-5Zm-35-5h5v5h-5v-5Zm25 10h5v5h-5v-5Zm15 0h5v5h-5v-5Zm-5 5h5v5h-5v-5Zm5 0h5v5h-5v-5Zm0 5h5v5h-5v-5Zm5 0h5v5h-5v-5Z" fill="#11ca59"/>
    <path d="M165 145h5v5h-5v-5Zm-15-15h5v5h-5v-5Zm15-5h5v5h-5v-5Zm-35-10h5v5h-5v-5Zm85 5h5v5h-5v-5Zm5 0h5v5h-5v-5Zm-80-15h5v5h-5v-5Zm0 20h5v5h-5v-5Zm50-30h5v5h-5v-5Zm15 0h5v5h-5v-5Zm-10 0h5v5h-5v-5Zm-50 25h5v5h-5v-5Zm0-5h5v5h-5v-5Zm5-75h5v5h-5v-5Zm5 0h5v5h-5v-5Zm0 5h5v5h-5v-5Zm-5 5h5v5h-5v-5Z" fill="#11ca59"/>
    <path d="M150 50h5v5h-5v-5Zm5-5h5v5h-5v-5Zm-5 0h5v5h-5v-5Zm5 5h5v5h-5v-5Zm5-15h5v5h-5v-5Z" fill="#11ca59"/>
    <path d="M160 35h5v5h-5v-5Zm5-5h5v5h-5v-5Zm-25 15h5v5h-5v-5Zm10-20h5v5h-5v-5Zm-10 5h5v5h-5v-5Zm-15 65h5v5h-5v-5Zm5-5h5v5h-5v-5Zm-10 20h5v5h-5v-5Zm85 5h5v5h-5v-5Zm5 0h5v5h-5v-5Zm-30 30h5v5h-5v-5Zm-30-30h5v5h-5v-5Zm-25 5h5v5h-5v-5Zm10 75h5v5h-5v-5Zm75-70h5v5h-5v-5Zm5 0h5v5h-5v-5Zm-60 0h5v5h-5v-5Zm-35-5h5v5h-5v-5Zm10 75h5v5h-5v-5Zm75-70h5v5h-5v-5Z" fill="#11ca59"/>
    <path d="M210 125h5v5h-5v-5Zm-60 0h5v5h-5v-5Zm-20-15h5v5h-5v-5Zm85 5h5v5h-5v-5Zm5 0h5v5h-5v-5Zm-80-15h5v5h-5v-5Zm0 20h5v5h-5v-5Zm70-25h5v5h-5v-5Zm-25-15h5v5h-5v-5Zm-70 55h5v5h-5v-5Zm30-20h5v5h-5v-5Zm0-5h5v5h-5v-5Zm65-85h5v5h-5v-5Zm5 5h5v5h-5v-5Zm5 5h5v5h-5v-5Zm5 0h5v5h-5v-5Z" fill="#11ca59"/>
    <path d="M225 35h5v5h-5v-5Zm-5 5h5v5h-5v-5Z" fill="#11ca59"/>
    <path d="M220 40h5v5h-5v-5Zm10-10h5v10h-5V30Z" fill="#11ca59"/>
    <path d="M230 35h5v5h-5v-5Zm-5 0h5v5h-5v-5Zm5 5h5v5h-5v-5Zm-5 0h5v5h-5v-5Zm0 5h5v5h-5v-5Zm5 5h5v5h-5v-5Zm5 5h5v5h-5v-5Zm0 5h5v5h-5v-5Zm0 5h5v5h-5v-5Zm-15-5h5v5h-5v-5Z" fill="#11ca59"/>
    <path d="M220 60h5v5h-5v-5Z" fill="#11ca59"/>
    <path d="M220 60h5v5h-5v-5Z" fill="#11ca59"/>
    <path d="M220 60h5v5h-5v-5Z" fill="#11ca59"/>
    <path d="M220 60h5v5h-5v-5Zm-40 0h5v5h-5v-5Zm-10 5h5v5h-5v-5Zm15 0h5v5h-5v-5Z" fill="#11ca59"/>
    <path d="M185 65h5v5h-5v-5Zm-5 0h5v5h-5v-5Zm5 5h5v5h-5v-5Zm-5 0h5v5h-5v-5Z" fill="#11ca59"/>
    <path d="M180 70h5v5h-5v-5Zm5 5h5v5h-5v-5Zm-5 5h5v5h-5v-5Z" fill="#11ca59"/>
    <path d="M180 80h5v5h-5v-5Zm-5 0h5v5h-5v-5Zm0 5h5v5h-5v-5Zm40-15h5v5h-5v-5Z" fill="#11ca59"/>
    <path d="M215 70h5v5h-5v-5Zm-10 5h5v5h-5v-5Zm0 5h5v5h-5v-5Zm5 0h5v5h-5v-5Zm-10 0h5v5h-5v-5Zm15-15h5v5h-5v-5Zm-10-35h5v5h-5v-5Zm20 45h5v5h-5v-5Zm-5 5h5v5h-5v-5Zm5 0h5v5h-5v-5Zm-5-5h5v5h-5v-5Z" fill="#11ca59"/>
    <path d="M220 75h5v5h-5v-5Zm-5 0h5v5h-5v-5Z" fill="#11ca59"/>
    <path d="M220 75h5v5h-5v-5Z" fill="#11ca59"/>
    <path d="M220 75h5v5h-5v-5Zm10-10h5v5h-5v-5Zm.431 5H240v5h-9.569v-5Zm0 5H240v5h-9.569v-5Z" fill="#11ca59"/>
    <path d="M235 75h5v5h-5v-5Zm0 5h5v5h-5v-5Zm5 10h5v5h-5v-5Zm0-5h5v5h-5v-5Zm-10-10h5v5h-5v-5Zm0 5h5v5h-5v-5Zm10 15h5v5h-5v-5Zm-15-15h5v5h-5v-5Zm0-20h5v5h-5v-5Zm0 5h5v5h-5v-5Z" fill="#11ca59"/>
    <path d="M225 65h5v5h-5v-5Zm-5 0h5v5h-5v-5Zm10 10h5v5h-5v-5Zm0-5h5v5h-5v-5Zm-10 0h5v5h-5v-5Zm-10-40h5v5h-5v-5Zm15-5h5v5h-5v-5Zm-5-5h5v5h-5v-5Zm-5 5h5v5h-5v-5Z" fill="#11ca59"/>
    <path d="M215 25h5v5h-5v-5Z" fill="#11ca59"/>
    <path d="M215 25h5v5h-5v-5Zm5 0h5v5h-5v-5Zm-70 10h5v5h-5v-5Zm-10 5h5v5h-5v-5Zm-10 0h5v5h-5v-5Zm0 5h5v5h-5v-5Zm-5 60h5v5h-5v-5Zm105 0h5v5h-5v-5Zm5-5h5v5h-5v-5Zm-10 10h5v5h-5v-5Zm-40 25h5v5h-5v-5Zm-30-25h5v5h-5v-5Zm-25 5h5v5h-5v-5Zm85 5h5v5h-5v-5Zm5 0h5v5h-5v-5Zm-95-5h5v5h-5v-5Zm10 75h5v5h-5v-5Zm75-70h5v5h-5v-5Zm-35 30h5v5h-5v-5Zm-5 0h5v5h-5v-5Zm10 0h5v5h-5v-5Z" fill="#11ca59"/>
    <path d="M215 120h5v5h-5v-5Zm10 40h5v5h-5v-5Zm-20-35h5v5h-5v-5Zm40 5h5v5h-5v-5Zm5 0h5v5h-5v-5Zm10 5h5v5h-5v-5Zm5 5h5v5h-5v-5Zm5 5h5v5h-5v-5Zm0 10h5v5h-5v-5Zm0 5h5v5h-5v-5Zm5 5h5v5h-5v-5Zm5 5h5v5h-5v-5Zm5 5h5v5h-5v-5Zm0 5h5v5h-5v-5Zm0 5h5v5h-5v-5Zm-15 10h5v5h-5v-5Zm5-5h5v5h-5v-5Zm5 0h5v5h-5v-5Zm-15 5h5v5h-5v-5Zm0 5h5v5h-5v-5Zm-5 0h5v5h-5v-5Zm20-25h5v5h-5v-5Zm-10-25h5v5h-5v-5Zm-15-15h5v5h-5v-5Zm-90-60h5v5h-5v-5Zm5 0h5v5h-5v-5Zm-5-5h5v5h-5v-5Zm0-5h5v5h-5v-5Zm5-5h5v5h-5v-5Zm-40 40h5v5h-5v-5Zm-10 20h5v5h-5v-5Zm10 75h5v5h-5v-5Zm5 0h5v5h-5v-5Zm5-5h5v5h-5v-5Zm0 5h5v5h-5v-5Zm-30-5h5v5h-5v-5Zm-5-5h5v5h-5v-5Zm0 5h5v5h-5v-5Z" fill="#11ca59"/>
    <path d="M105 185h5v5h-5v-5Zm5 10h5v5h-5v-5Zm-5 0h5v5h-5v-5Zm-5 0h5v5h-5v-5Zm5 5h5v5h-5v-5Zm5 0h5v5h-5v-5Z" fill="#11ca59"/>
    <path d="M110 200h5v5h-5v-5Zm-10 0h5v5h-5v-5Zm0 5h5v5h-5v-5Zm-5 5h5v5h-5v-5Zm10-10h5v5h-5v-5Zm0 5h5v5h-5v-5Z" fill="#11ca59"/>
    <path d="M100 205h5v5h-5v-5Zm-5 0h5v5h-5v-5Zm5 15h5v5h-5v-5Zm-5 5h5v5h-5v-5Zm-5 0h5v5h-5v-5Zm5-5h5v5h-5v-5Z" fill="#11ca59"/>
    <path d="M95 225h5v5h-5v-5Zm-5-5h5v5h-5v-5Zm115-95h5v5h-5v-5Zm15 35h5v5h-5v-5Zm-55-10h5v5h-5v-5Zm65-25h5v5h-5v-5Zm0-5h5v5h-5v-5Zm-5 5h5v5h-5v-5Zm0-5h5v5h-5v-5Zm-5 0h5v5h-5v-5Zm5-5h5v5h-5v-5Zm-45 25h5v5h-5v-5Zm30-15h5v5h-5v-5Z" fill="#11ca59"/>
    <path d="M225 120h5v5h-5v-5Zm10 0h5v5h-5v-5Zm5 0h5v5h-5v-5Z" fill="#11ca59"/>
    <path d="M235 120h5v5h-5v-5Z" fill="#11ca59"/>
    <path d="M235 120h5v5h-5v-5Zm-5-5h5v5h-5v-5Zm0 10h5v5h-5v-5Zm5 0h5v5h-5v-5Zm5 0h5v5h-5v-5Zm-5-10h5v5h-5v-5Zm-5-5h5v5h-5v-5Zm-80 15h5v5h-5v-5Zm0-10h5v5h-5v-5Zm-25 15h5v5h-5v-5Zm25 10h5v5h-5v-5Zm10 14.754h5V150h-5v4.754ZM150 145h5v5h-5v-5Zm5 0h5v5h-5v-5Zm-35-15h5v5h-5v-5Zm25 10h5v5h-5v-5Zm-15-20h5v5h-5v-5Zm85 5h5v5h-5v-5Zm5 45h5v5h-5v-5Zm10-10h5v5h-5v-5Zm-10 5h5v5h-5v-5ZM85 150h5v5h-5v-5Zm135-25h5v5h-5v-5Zm-45-65h5v5h-5v-5Zm-10 25h5v5h-5v-5Zm5-5h5v5h-5v-5Zm5-15h5v5h-5v-5Zm0 10h5v5h-5v-5Zm0-5h5v5h-5v-5Zm5-5h5v5h-5v-5Z" fill="#11ca59"/>
    <path d="M225 70h5v5h-5v-5Zm-45 0h5v5h-5v-5Z" fill="#e7fd19"/>
    <path d="M175 70h5v5h-5v-5Zm-5 15h5v5h-5v-5Zm-5-5h5v5h-5v-5Zm-5-5h5v5h-5v-5Zm0-5h5v5h-5v-5Zm10 0h5v5h-5v-5Zm0 5h5v5h-5v-5Zm10 0h5v5h-5v-5Zm-40 35h5v5h-5v-5Zm20-30h5v5h-5v-5Zm-45 70h5v5h-5v-5Z" fill="#11ca59"/>
    <path d="M115 150h5v5h-5v-5Z" fill="#11ca59"/>
    <path d="M115 150h5v5h-5v-5Zm-35 0h5v5h-5v-5Zm10-5h5v5h-5v-5Zm5 0h5v5h-5v-5Zm20 0h5v5h-5v-5Zm0-5h5v5h-5v-5Zm35-25h5v5h-5v-5Zm-10 15h5v5h-5v-5Zm55-15h5v5h-5v-5Zm-30 20h5v5h-5v-5Zm10 0h5v5h-5v-5Zm-10 5h5v5h-5v-5Zm15-5h5v5h-5v-5Zm-20-5h5v5h-5v-5Zm-15-5h5v5h-5v-5Zm55-30h5v5h-5v-5Zm-35 35h5v5h-5v-5Zm5 0h5v5h-5v-5Zm5 0h5v5h-5v-5Zm-15-5h5v5h-5v-5Zm-15-5h5v5h-5v-5Zm40-5h5v5h-5v-5Zm5 0h5v5h-5v-5Zm-55 20h5v5h-5v-5Zm45-20h5v5h-5v-5Zm-10 20h5v5h-5v-5Zm0 5h5v5h-5v-5Zm5 0h5v5h-5v-5Zm10 5h5v5h-5v-5Zm0-5h5v5h-5v-5Zm5 5h5v5h-5v-5Zm0-5h5v5h-5v-5Zm-60-5h5v5h-5v-5Zm10-85h5v5h-5v-5Zm15-30h5v5h-5v-5Zm-10 5h5v5h-5v-5Zm10 5h5v5h-5v-5Zm-10 5h5v5h-5v-5Zm0 10h5v5h-5v-5Zm-10 15h5v5h-5v-5Zm20-35h5v5h-5v-5Zm5 0h5v5h-5v-5Z" fill="#11ca59"/>
    <path d="M160 25h5v5h-5v-5Z" fill="#11ca59"/>
    <path d="M160 25h5v5h-5v-5Zm0 5h5v5h-5v-5Z" fill="#11ca59"/>
    <path d="M160 30h5v5h-5v-5Zm10-5h5v5h-5v-5Zm5 0h5v5h-5v-5Zm10 0h5v5h-5v-5Zm5 0h5v5h-5v-5Zm5 0h5v5h-5v-5Zm5 0h5v5h-5v-5Zm-20 0h5v5h-5v-5Zm-35 5h5v5h-5v-5Zm10 5h5v5h-5v-5Zm-10 5h5v5h-5v-5Zm-15 40h5v5h-5v-5Zm0-5h5v5h-5v-5Zm0-5h5v5h-5v-5Zm15-20h5v5h-5v-5Zm-10 15h5v5h-5v-5Zm5-10h5v5h-5v-5Zm120 135h5v5h-5v-5Zm-10-5h5v5h-5v-5Zm5 5h5v5h-5v-5Zm-35 25h5v5h-5v-5Zm50-25h5v5h-5v-5Zm-45-10h5v5h-5v-5Zm55 5h5v5h-5v-5Zm-15 5h5v5h-5v-5Zm-50 30h5v5h-5v-5Zm-5 0h5v5h-5v-5Zm-10 10h5v5h-5v-5Zm5-10h5v5h-5v-5Zm0 5h5v5h-5v-5Zm-5-5h5v5h-5v-5Zm35-10h5v5h-5v-5Zm5-5h5v5h-5v-5Zm-35 30h5v5h-5v-5Zm5 0h5v5h-5v-5Zm0 5h5v5h-5v-5Zm-20 0h5v5h-5v-5Zm-20 5h5v5h-5v-5Zm0-25h5v5h-5v-5Zm0 5h5v5h-5v-5Zm0 15h5v5h-5v-5Z" fill="#11ca59"/>
    <path d="M170 220h5v5h-5v-5ZM35 255h5v5h-5v-5Zm0-50h5v5h-5v-5Zm50 40h5v5h-5v-5Zm-10-10h5v5h-5v-5Zm-5 0h5v5h-5v-5Zm0-5h5v5h-5v-5Zm-5 0h5v5h-5v-5Zm-25 25h5v5h-5v-5Zm0-50h5v5h-5v-5Zm35-40h5v5h-5v-5Zm25 10h5v5h-5v-5Zm-75 30h5v5h-5v-5Zm-5 0h5v5h-5v-5Zm0 5h5v5h-5v-5Zm0 40h5v5h-5v-5Zm30-20h5v5h-5v-5Zm120-5h5v5h-5v-5Zm0 5h5v5h-5v-5Zm5 20h5v5h-5v-5ZM60 240h5v5h-5v-5Zm0 5h5v5h-5v-5Zm30 0h5v5h-5v-5Zm-10-5h5v5h-5v-5Zm-5 0h5v5h-5v-5Z" fill="#11ca59"/>
    <path d="M75 240h5v5h-5v-5Zm-30 15h5v5h-5v-5Zm0-50h5v5h-5v-5Zm60-25h5v5h-5v-5Zm0-5h5v5h-5v-5Zm-25-10h5v5h-5v-5Zm15 5h5v5h-5v-5Zm-75 45h5v5h-5v-5Zm10 25h5v5h-5v-5Zm30 10h5v5h-5v-5Zm-30 5h5v5h-5v-5Zm0-50h5v5h-5v-5Zm-5 40h5v5h-5v-5Zm-5 0h5v5h-5v-5Zm25-15h5v5h-5v-5Zm-5 5h5v5h-5v-5Zm-5 5h5v5h-5v-5Zm130-10h5v5h-5v-5ZM25 255h5v5h-5v-5Zm0-5h5v5h-5v-5Zm80-5h5v5h-5v-5Zm5 0h5v5h-5v-5Zm-55 10h5v5h-5v-5Zm0-50h5v5h-5v-5Zm-20 15h5v5h-5v-5Zm145 25h5v5h-5v-5Zm0 5h5v5h-5v-5Zm-20-15h5v5h-5v-5Zm5 5h5v5h-5v-5Zm0-5h5v5h-5v-5Zm-5 5h5v5h-5v-5Z" fill="#11ca59"/>
    <path d="M160 240h5v5h-5v-5Z" fill="#11ca59"/>
    <path d="M160 240h5v5h-5v-5Zm-100-5h5v5h-5v-5Zm-5-5h5v5h-5v-5Zm40 15h5v5h-5v-5Z" fill="#11ca59"/>
    <path d="M95 245h5v5h-5v-5Zm5 0h5v5h-5v-5Zm15 0h5v5h-5v-5Zm5 0h5v5h-5v-5Zm5 0h5v5h-5v-5Zm5-5h5v5h-5v-5Zm0 5h5v5h-5v-5Zm5-5h5v5h-5v-5Zm0 5h5v5h-5v-5Zm10-5h5v5h-5v-5Z" fill="#11ca59"/>
    <path d="M145 240h5v5h-5v-5Zm5-5h5v5h-5v-5Zm0 5h5v5h-5v-5Zm5-5h5v5h-5v-5Zm0 5h5v5h-5v-5Zm-15 0h5v5h-5v-5Zm-90 15h5v5h-5v-5Zm0-50h5v5h-5v-5Zm35-35h5v5h-5v-5Zm5 0h5v5h-5v-5Zm10 10h5v5h-5v-5Zm0 5h5v5h-5v-5Zm-5 5h5v5h-5v-5Zm-5 5h5v5h-5v-5Zm-5 5h5v5h-5v-5Zm0 5h5v5h-5v-5Zm-5 5h5v5h-5v-5Zm-5 5h5v5h-5v-5Zm-5 0h5v5h-5v-5Zm-5 0h5v5h-5v-5Zm-5 5h5v5h-5v-5Zm0-5h5v5h-5v-5Zm0-5h5v5h-5v-5Zm-35 5h5v5h-5v-5Zm5 5h5v5h-5v-5Zm10 5h5v5h-5v-5Zm130 10h5v5h-5v-5Zm15 10h5v5h-5v-5Zm30-10h5v5h-5v-5Zm-20 0h5v5h-5v-5Zm25-25h5v5h-5v-5Zm5 0h5v5h-5v-5Zm5 0h5v5h-5v-5Zm-5 5h5v5h-5v-5Zm20-10h5v5h-5v-5Zm-20 30h5v5h-5v-5Zm-5 5h5v5h-5v-5Zm0-5h5v5h-5v-5Zm-5 5h5v5h-5v-5Zm15-10h5v5h-5v-5Zm0-5h5v5h-5v-5Zm0-5h5v5h-5v-5Zm0-5h5v5h-5v-5Zm-10-35h5v5h-5v-5Zm-20 35h5v5h-5v-5Zm0 10h5v5h-5v-5Zm30-45h5v5h-5v-5Zm5 0h5v5h-5v-5Zm5 0h5v5h-5v-5Zm5 5h5v5h-5v-5Zm10 20h5v5h-5v-5Zm-5 0h5v5h-5v-5Zm-95-85h5v5h-5v-5Z" fill="#11ca59"/>
  </g>
  <path d="M110 160h5v5h-5v-5Z" fill="url(#green-a)"/>
  <path d="M105 165h5v5h-5v-5Z" fill="url(#green-b)"/>
  <path d="M105 160h5v5h-5v-5Z" fill="url(#green-c)"/>
  <path d="M95 165h5v5h-5v-5Z" fill="url(#green-d)"/>
  <path d="M95 160h5v5h-5v-5Z" fill="url(#green-e)"/>
  <path d="M100 165h5v5h-5v-5Z" fill="url(#green-f)"/>
  <path d="M100 160h5v5h-5v-5Z" fill="url(#green-g)"/>
  <path d="M95 155h5v5h-5v-5Z" fill="url(#green-h)"/>
  <path d="M220 220h5v5h-5v-5Z" fill="url(#green-i)"/>
  <path d="M225 225h5v5h-5v-5Z" fill="url(#green-j)"/>
  <path d="M220 230h5v5h-5v-5Z" fill="url(#green-k)"/>
  <path d="M215 225h5v5h-5v-5Z" fill="url(#green-l)"/>
  <path d="M220 225h5v5h-5v-5Z" fill="url(#green-m)"/>
  <path d="M225 220h5v5h-5v-5Z" fill="url(#green-n)"/>
  <path d="M215 230h5v5h-5v-5Z" fill="url(#green-o)"/>
  <path d="M225 230h5v5h-5v-5Z" fill="url(#green-p)"/>
  <path d="M40 250h5v5h-5v-5Z" fill="url(#green-q)"/>
  <path d="M40 245h5v5h-5v-5Z" fill="url(#green-r)"/>
  <path d="M55 250h5v5h-5v-5Z" fill="url(#green-s)"/>
  <path d="M55 245h5v5h-5v-5Z" fill="url(#green-t)"/>
  <path d="M55 240h5v5h-5v-5Z" fill="url(#green-u)"/>
  <path d="M55 225h5v5h-5v-5Z" fill="url(#green-v)"/>
  <path d="M55 235h5v5h-5v-5Z" fill="url(#green-w)"/>
  <path d="M105 155h5v5h-5v-5Z" fill="url(#green-x)"/>
  <path d="M105 170h5v5h-5v-5Z" fill="url(#green-y)"/>
  <path d="M90 165h5v5h-5v-5Z" fill="url(#green-z)"/>
  <path d="M90 160h5v5h-5v-5Z" fill="url(#green-A)"/>
  <path d="M90 155h5v5h-5v-5Z" fill="url(#green-B)"/>
  <path d="M30 250h5v5h-5v-5Z" fill="url(#green-C)"/>
  <path d="M30 245h5v5h-5v-5Z" fill="url(#green-D)"/>
  <path d="M45 250h5v5h-5v-5Z" fill="url(#green-E)"/>
  <path d="M45 245h5v5h-5v-5Z" fill="url(#green-F)"/>
  <path d="M45 240h5v5h-5v-5Z" fill="url(#green-G)"/>
  <path d="M45 225h5v5h-5v-5Z" fill="url(#green-H)"/>
  <path d="M45 235h5v5h-5v-5Z" fill="url(#green-I)"/>
  <path d="M60 230h5v5h-5v-5Z" fill="url(#green-J)"/>
  <path d="M210 225h5v5h-5v-5Z" fill="url(#green-K)"/>
  <path d="M210 230h5v5h-5v-5Z" fill="url(#green-L)"/>
  <path d="M205 230h5v5h-5v-5Z" fill="url(#green-M)"/>
  <path d="M35 250h5v5h-5v-5Z" fill="url(#green-N)"/>
  <path d="M35 245h5v5h-5v-5Z" fill="url(#green-O)"/>
  <path d="M50 250h5v5h-5v-5Z" fill="url(#green-P)"/>
  <path d="M50 245h5v5h-5v-5Z" fill="url(#green-Q)"/>
  <path d="M50 240h5v5h-5v-5Z" fill="url(#green-R)"/>
  <path d="M50 225h5v5h-5v-5Z" fill="url(#green-S)"/>
  <path d="M50 235h5v5h-5v-5Z" fill="url(#green-T)"/>
  <path d="M100 155h5v5h-5v-5Z" fill="url(#green-U)"/>
  <path d="M100 170h5v5h-5v-5Z" fill="url(#green-V)"/>
  <path d="M85 165h5v5h-5v-5Z" fill="url(#green-W)"/>
  <path d="M85 160h5v5h-5v-5Z" fill="url(#green-X)"/>
  <path d="M80 160h5v5h-5v-5Z" fill="url(#green-Y)"/>
  <path d="M80 155h5v5h-5v-5Z" fill="url(#green-Z)"/>
  <path d="M75 160h5v5h-5v-5Z" fill="url(#green-aa)"/>
  <path d="M75 155h5v5h-5v-5Z" fill="url(#green-ab)"/>
  <path d="M85 155h5v5h-5v-5Z" fill="url(#green-ac)"/>
  <path d="M40 240h5v5h-5v-5Z" fill="url(#green-ad)"/>
</svg>
