<?xml version="1.0" encoding="UTF-8" standalone="no"?>
<svg
   version="1.1"
   x="0px"
   y="0px"
   viewBox="0 0 68109.945 63966.168"
   xml:space="preserve"
   id="svg10"
   width="68109.945"
   height="63966.168"
   xmlns="http://www.w3.org/2000/svg"
   xmlns:svg="http://www.w3.org/2000/svg"><defs
   id="defs14" />
	<g
   id="g8"
   transform="translate(-8163.272,-7534.2393)">
		
		
		
	<path
   style="fill:#ffffff;fill-opacity:1;stroke:#ffe4e8;stroke-width:4.438;stroke-linecap:round;stroke-linejoin:bevel;stroke-dasharray:35.504, 17.752;stroke-dashoffset:0;stroke-opacity:1;paint-order:normal"
   d="m 120.65345,37.518094 c -10.22488,1.336333 -20.02752,5.75725 -27.814133,12.51376 -3.168433,2.997933 -6.13504,6.21079 -8.998604,9.499096 -2.393409,3.040071 -4.537643,6.296016 -6.331695,9.724431 -0.999078,2.265279 -0.773334,4.828085 -0.159044,7.161878 0.79396,3.888277 1.006256,9.042314 1.650486,12.950032 0.02982,0.272939 0.750258,0.178876 0.673808,-0.130765 -0.09104,-0.368724 -0.09957,-1.001318 -0.140458,-1.203227 -0.06891,-3.097799 0.612739,-6.288267 2.468143,-8.824799 1.604201,-2.387996 4.183701,-4.359894 7.175399,-4.312498 2.321823,-0.138932 4.595465,0.848315 6.150208,2.572282 2.754582,2.705411 4.337383,6.532888 4.253874,10.39653 0.117269,4.31107 -1.30449,8.729942 -4.226426,11.956005 -1.939527,2.184001 -4.978016,3.663901 -7.870567,2.896871 -3.570912,-0.90497 -6.044335,-4.049912 -7.756805,-7.137316 -0.183494,-0.338026 -0.677215,-1.478633 -1.074677,-0.876156 -1.637202,2.125539 -1.889733,5.424872 -0.73715,7.846872 1.546026,3.14801 3.990275,5.73483 6.277098,8.35177 0.409236,0.58997 1.127864,0.47999 1.697526,0.23426 4.984257,-1.05248 10.141594,0.6301 14.380687,3.27853 3.11382,1.87797 5.83295,4.34294 8.16371,7.12692 0.41536,0.56464 0.79324,-0.184 0.92254,-0.56347 0.88578,-2.4041 2.84053,-4.33889 5.25525,-5.19676 4.08447,-1.48718 8.50217,-0.85831 12.73524,-1.53188 1.85969,-0.39965 3.18534,-1.921 3.99243,-3.55922 1.62664,-2.31493 4.39464,-3.35954 6.84511,-4.55016 4.432,-1.9143 9.27191,-2.94245 13.47261,-5.42434 2.28802,-1.361479 4.62677,-2.782512 6.42943,-4.77001 0.89101,-1.532303 1.1829,-3.34142 1.69452,-5.023511 2.11089,-8.023056 1.60592,-16.568604 -0.75546,-24.477011 -1.48041,-4.940795 -3.33387,-9.819794 -5.98851,-14.25693 -0.14726,-0.351843 -0.70803,-0.891696 -0.94675,-0.320797 -0.82622,3.077638 -2.88329,5.76087 -5.44545,7.624444 -0.64697,0.549216 -1.55443,0.358648 -2.13424,-0.197442 -5.58445,-4.145788 -10.81191,-8.797889 -16.71616,-12.500451 -1.57343,-0.84903 -3.15676,-1.954287 -5.01066,-1.971943 -1.3293,-0.217586 -1.69931,-1.766217 -1.92586,-2.888247 -0.27723,-1.398246 -0.131,-2.818956 0.0652,-4.229661 -0.0172,-0.130989 -0.14998,-0.203098 -0.27066,-0.187087 z m -1.99487,26.483504 c 3.55084,0.05118 6.60106,2.260359 9.19492,4.462747 2.25183,1.834608 4.25878,3.976141 6.62402,5.664824 2.83952,1.772056 6.31699,1.371327 9.43691,2.213389 2.09231,0.47565 4.3685,1.569497 5.17588,3.726362 0.37848,1.199427 0.15275,2.564553 -0.2912,3.72319 -0.66106,1.407274 -1.3827,2.836051 -2.41724,3.998301 -3.99967,-0.06076 -8.02194,0.149208 -11.92177,1.100412 -4.51696,0.943224 -8.92897,2.360033 -13.47359,3.154468 -3.35254,0.507668 -6.91651,-0.715055 -8.99811,-3.437336 -2.58097,-3.189089 -4.62471,-7.137782 -4.4035,-11.340479 0.0167,-3.771103 1.39311,-7.681243 4.1523,-10.35283 1.86235,-1.664133 4.39714,-2.848292 6.92138,-2.913048 z m -9.42791,27.433493 c 1.07594,0.05514 1.65134,1.380781 1.10904,2.274959 -0.67067,1.491071 -0.0546,3.094017 0.62624,4.452706 0.35603,0.722193 0.55073,1.53657 0.98098,2.215544 0.61352,0.0394 0.89175,-0.810299 1.31176,-1.155402 0.73316,-0.863441 1.34934,-1.869815 2.16686,-2.637272 0.87541,0.335558 1.862,0.682773 2.52135,1.349503 -1.35039,2.189791 -3.13517,4.094861 -4.84753,6.002941 -0.6927,0.97101 -1.88777,1.47341 -3.06293,1.22927 -2.37899,-0.43587 -4.52771,-1.63066 -6.76234,-2.50761 -0.50111,-0.57928 -0.13654,-1.4343 -0.13425,-2.12911 -0.0636,-0.51253 0.38996,-0.784688 0.8241,-0.568543 1.56203,0.335363 2.99171,1.109243 4.51164,1.537123 0.40895,-0.38603 -0.19785,-1.0172 -0.25729,-1.46426 -0.55757,-1.339297 -1.13122,-2.688366 -1.42703,-4.109507 -0.31054,-0.458473 -0.99349,0.33629 -1.21445,-0.278473 -0.37023,-0.764716 -0.82756,-1.588957 -0.99015,-2.396808 1.37537,-0.897322 2.96604,-1.541079 4.58658,-1.816679 z"
   id="path389" /><path
   style="fill:#ffa2d3;fill-opacity:1;stroke:#ffceff;stroke-width:5.2;stroke-linecap:round;stroke-linejoin:miter;stroke-miterlimit:0;stroke-dasharray:none;stroke-dashoffset:0;stroke-opacity:1;paint-order:normal"
   d="m 235.1813,114.18468 c -1.60964,0.50147 -2.87022,1.75558 -4.2666,2.65915 -2.63211,2.02469 -5.50368,3.75608 -7.95735,6.0029 -1.91778,2.02523 -3.13202,4.58921 -4.75049,6.84178 -3.1401,4.92704 -7.02592,9.45615 -11.82212,12.83205 -3.65628,2.59185 -8.00058,4.02047 -12.45356,4.4533 -0.40167,0.5736 0.56721,1.37469 0.68917,2.0247 1.81803,3.89085 3.56652,7.86175 4.51097,12.06447 0.64431,3.40741 0.28675,7.09222 -1.54357,10.102 -0.99063,1.59521 -1.82047,3.37018 -1.76036,5.29219 -0.24186,2.57138 0.89587,4.94699 1.69091,7.31745 0.85588,2.41448 0.30418,5.29854 -1.59736,7.06609 -3.86538,4.13649 -9.02198,6.81428 -14.44286,8.28518 -4.0802,1.05567 -8.27286,2.11592 -12.51348,1.87194 -3.09784,-0.29596 -5.68763,-2.57274 -7.32198,-5.07101 -0.85564,-1.70341 -0.47899,-3.68092 -0.54594,-5.51576 0.19047,-4.67003 1.55803,-9.2161 2.42987,-13.79965 0.87094,-4.41913 1.76846,-9.19129 0.0662,-13.53065 -1.74195,-4.22019 -4.32674,-8.07582 -5.72428,-12.43846 -0.2026,-1.0119 -0.62834,-2.13567 -1.72683,-2.44973 -4.07591,-1.88504 -8.24504,-3.56895 -11.97892,-6.08974 -1.76995,-0.95535 -3.16158,-2.62304 -5.14514,-3.15351 -2.86756,-0.55545 -5.59131,0.91452 -8.30495,1.59425 -2.97566,0.86206 -6.2506,0.66783 -8.98928,-0.84277 -4.71325,-2.3561 -8.92549,-5.97555 -11.51168,-10.61557 -0.86894,-1.52585 -1.17934,-3.28134 -1.49609,-4.9794 -0.72082,0.0273 -1.39269,0.61542 -2.1556,0.73491 -6.36201,1.3946 -12.96835,0.51061 -19.216331,-1.09289 -2.540561,-0.6392 -4.888707,-1.77533 -7.177683,-3.01608 -0.886097,-0.41478 -1.850071,0.2151 -2.748403,0.31572 -5.429548,1.29225 -11.067471,2.20475 -16.010093,4.94893 -4.955975,2.69016 -8.972908,6.81806 -12.433775,11.20874 -4.409172,5.80207 -8.039312,12.44683 -9.03506,19.75567 -0.565248,4.37112 -0.178122,8.81202 -0.759559,13.17099 -0.195986,1.4678 -1.701677,2.04085 -2.80209,2.72569 -1.612931,1.08236 -3.179546,2.35669 -4.28816,3.96278 -0.37681,0.88719 0.837375,1.24204 1.444637,1.46459 3.590215,1.26081 7.476221,0.9039 11.206658,0.77051 8.053458,-0.52987 16.10251,-1.89456 23.736193,-4.55886 2.168341,-0.76678 4.197864,-1.86672 6.118856,-3.11738 1.046251,-0.47096 2.362346,0.12483 2.997966,0.98395 0.08284,0.82512 -0.929832,1.24667 -1.474813,1.68463 -6.337495,4.0464 -13.84523,5.64682 -21.16749,6.93752 -6.366085,0.99474 -12.882564,1.73528 -19.296314,0.86777 -0.943896,-0.1246 -1.868407,-0.40661 -2.816809,-0.47877 -0.51464,0.36997 0.256707,0.99047 0.470222,1.32784 2.260229,2.68094 5.834133,3.63782 9.1251,4.35691 4.764425,0.98777 9.659271,0.95445 14.491374,1.05575 1.342774,-0.0726 2.106102,1.19179 3.061046,1.92855 11.67854,11.346 25.694417,20.58866 41.358428,25.33535 4.83913,1.39736 9.77581,2.59462 14.80414,3.0325 5.16327,0.3187 10.32011,-0.34701 15.48639,-0.20326 1.02712,0.0709 -0.003,-0.92985 -0.20603,-1.33291 -2.84024,-4.41092 -5.49459,-9.26127 -5.76155,-14.60975 -0.27349,-3.05182 -0.0441,-6.11933 0.39273,-9.15064 -0.0734,-0.58283 -0.93627,-0.43385 -1.30723,-0.75578 -7.02472,-3.02709 -14.22798,-5.71982 -20.86898,-9.54745 -3.25532,-1.96328 -6.244038,-4.41624 -8.708679,-7.31658 -0.297295,-0.49561 -0.844424,-0.46088 -1.246523,-0.10918 -2.773309,1.67305 -5.91935,3.04703 -9.212251,2.79066 -2.86572,0.0853 -5.348806,-2.69356 -5.244735,-5.52833 -0.416127,-3.69538 1.659267,-7.56906 5.079271,-9.11571 3.133814,-1.44811 7.048133,-1.36128 10.019038,0.48936 2.003573,1.2678 3.410935,3.67399 3.025732,6.08112 0.0098,0.9545 -0.548928,1.81935 -0.59981,2.7389 3.386727,4.61275 8.434737,7.65876 13.492717,10.14191 5.08724,2.33068 10.25973,4.47117 15.39016,6.69562 0.94386,0.74839 1.18191,-0.28875 1.31295,-1.05707 0.63388,-1.99147 1.19615,-4.04153 2.14262,-5.90828 0.5567,-0.65461 1.43818,0.13393 2.03115,0.34062 0.39197,0.18716 1.0608,0.41625 0.6781,0.97491 -1.1935,3.14404 -2.35207,6.33607 -2.88314,9.67764 -0.97352,5.55082 -0.91111,11.61654 1.98958,16.61906 6.14599,10.62517 14.0761,20.24951 23.50034,28.12974 3.61658,2.9192 7.78677,5.79393 12.6102,5.88303 2.25011,0.0485 4.63554,-0.98897 5.68591,-3.06428 0.79502,-1.90443 0.0346,-4.00484 -0.49266,-5.87817 -2.04799,-5.84946 -5.32279,-11.16122 -8.38252,-16.51868 -1.90455,-3.07506 -3.63339,-6.32661 -4.3082,-9.91301 -1.23603,-5.31349 -1.31092,-10.9216 -3.41812,-16.01128 -1.34882,-3.44028 -4.29158,-6.28171 -7.92728,-7.14728 -0.97448,-0.25571 -1.96186,-0.45783 -2.94622,-0.67096 0.0941,-0.90609 -0.19349,-2.08069 0.482,-2.81331 1.8769,0.0163 3.72368,0.60267 5.47026,1.27726 4.01225,1.61185 6.81753,5.25951 8.19181,9.26759 2.38836,6.4339 1.78939,13.61106 4.57223,19.93035 0.65866,1.23013 1.13438,2.68429 2.23333,3.59663 1.06595,0.20351 2.08776,-0.50198 3.08712,-0.78441 7.64877,-3.12794 15.11393,-6.71428 22.36098,-10.68417 7.77142,-4.33927 15.01919,-9.64541 21.45096,-15.80053 5.65988,-5.43415 10.15022,-12.13382 12.64029,-19.59797 3.0068,-8.64206 3.62041,-17.84941 4.55489,-26.88285 0.22616,-2.91911 0.6315,-5.82782 0.80155,-8.74869 -0.26484,-0.79597 -1.36229,-0.85837 -1.92667,-1.39102 -1.93883,-1.30694 -2.08309,-3.98367 -1.65846,-6.03995 0.37556,-2.10843 1.38481,-4.106 3.01515,-5.52071 1.51265,-1.66516 3.43051,-3.04212 4.52709,-5.04204 0.15506,-0.48737 0.73017,-1.40689 0.0456,-1.70777 -0.0452,-0.009 -0.0917,-0.0116 -0.13776,-0.009 z"
   id="path391" /><path
   style="fill:#ffffff;fill-opacity:1;stroke:#f1e2ed;stroke-width:5;stroke-dasharray:none;stroke-opacity:1"
   d="m 165.26897,103.75206 c -0.47398,0.28857 0.097,0.96506 0.13047,1.37861 1.99268,5.40812 2.45362,11.42355 0.75938,16.96965 -1.65048,5.7549 -4.29537,11.21042 -7.89157,15.99583 -1.37702,1.82085 -2.90477,3.07548 -4.94292,4.07299 -0.18766,0.0618 -0.82133,0.22771 -0.88073,0.43574 -0.19049,0.0898 0.39535,0.26998 0.61221,0.41806 2.05375,0.99388 4.13786,1.92339 6.20889,2.88043 0.87128,-0.47269 1.44008,-1.48515 2.31324,-2.0415 2.32568,-1.73428 5.16258,-2.5779 7.89794,-3.41776 3.3477,-0.96306 6.82107,-1.28944 10.29985,-1.18389 2.68264,-0.0879 5.37806,0.12307 7.9098,1.06436 0.96847,0.39124 0.35616,-1.12328 0.46575,-1.61958 -0.46411,-7.74215 -3.76863,-15.09304 -8.28254,-21.30843 -3.90159,-5.29279 -8.74848,-9.90456 -14.23825,-13.52185 -0.11245,-0.0572 -0.22948,-0.13433 -0.3615,-0.12266 z"
   id="path393" /><path
   style="fill:#ffffff;fill-opacity:1;stroke-width:0.138023"
   d="m 87.802003,165.34175 c -2.393802,0.22436 -4.650203,1.90728 -5.190164,4.31135 -0.274483,1.34043 -0.527468,2.89546 0.20407,4.13099 1.053109,1.3129 2.916397,1.24171 4.390305,0.83892 1.963731,-0.49978 3.938848,-1.29584 5.497236,-2.58281 -0.371807,-0.48849 -1.260808,-0.18341 -1.82881,-0.45586 -1.593699,-0.49062 -3.188055,-1.78833 -3.445193,-3.52417 -0.125475,-1.09043 0.797965,-1.83718 1.298552,-2.65048 -0.163387,-0.34618 -0.643046,-0.0309 -0.925996,-0.0679 z"
   id="path395" /><path
   style="fill:#ffa2d3;fill-opacity:1;stroke:#ffceff;stroke-width:5;stroke-dasharray:none;stroke-opacity:1"
   d="m 68.614059,201.89368 c -0.447938,0.29008 -0.212676,1.044 -0.423388,1.50081 -0.799113,4.65178 -1.939353,9.2386 -2.7111,13.89392 -0.592222,4.8013 -0.448946,9.77973 1.125331,14.39352 1.579945,5.11388 4.824488,9.47648 8.299329,13.46204 1.139198,1.25334 1.95263,2.88606 3.420257,3.8022 0.91842,0.61293 2.042331,-0.0261 2.477142,-0.9206 1.438113,-2.59457 1.373536,-5.67202 1.848716,-8.52702 0.346748,-2.71759 0.56458,-5.58932 2.024026,-7.96974 2.060507,-3.80358 5.538133,-6.60224 7.724725,-10.3221 0.744843,-1.51999 1.636894,-3.1733 1.452481,-4.91681 -0.391603,-0.77085 -1.484945,-0.77921 -2.157024,-1.19477 -8.02867,-3.30518 -15.510921,-7.81943 -22.493087,-12.95613 -0.181051,-0.10123 -0.366806,-0.26562 -0.587408,-0.24532 z"
   id="path397" /><path
   d="m 122.2,92 c 2.4,-0.5 4.9,-1.2 7.3,-1.8 4.5,-1.2 9,-2.2 13.6,-2.3 0.7,0 1.4,0.1 2.2,0.1 0.7,0 1.3,-0.1 1.7,-0.7 0.8,-1.3 1.7,-2.7 2.2,-4.2 0.6,-1.9 0.2,-3.6 -1.3,-5 -0.7,-0.7 -1.6,-1.1 -2.6,-1.5 -1.9,-0.7 -3.9,-0.9 -5.9,-1.1 -2.5,-0.2 -4.6,-0.9 -6.5,-2.7 -1,-1 -2.1,-1.9 -3.1,-2.8 -2.1,-1.9 -4.1,-3.7 -6.7,-5 -2,-1 -4.1,-1.5 -6.3,-0.9 -3.6,0.9 -6.3,3.1 -7.8,6.4 -2.9,6.3 -1.8,12.3 2.5,17.7 2.7,3.6 6.3,4.7 10.7,3.8 z"
   id="path2" /><path
   d="m 104.2,103.2 c 0.3,0.1 0.7,0.2 1,0.4 1.3,0.5 2.5,1.2 3.9,1.5 1.5,0.4 2.8,0.5 4,-0.9 1.6,-1.9 3.3,-3.8 4.8,-5.8 0.3,-0.4 0.4,-0.7 -0.2,-0.9 -0.6,-0.2 -1.1,-0.5 -1.7,-0.9 -0.5,-0.3 -0.7,-0.2 -1.1,0.3 -0.9,1.3 -1.8,2.4 -2.9,3.6 -0.3,-1.3 -0.9,-2.3 -1.4,-3.4 -0.5,-1.1 -0.7,-2.2 -0.1,-3.4 0.3,-0.6 0.3,-1.3 -0.2,-1.9 -0.5,-0.6 -1.2,-0.6 -1.9,-0.4 -1.2,0.4 -2.4,0.9 -3.6,1.5 -0.4,0.2 -0.4,0.3 -0.3,0.7 0.3,0.7 0.7,1.4 0.9,2.1 0.2,0.4 0.4,0.5 0.7,0.3 0.2,-0.1 0.3,-0.2 0.6,-0.2 0.1,2 1.4,3.6 1.9,5.7 -1.3,-0.5 -2.4,-1 -3.6,-1.4 -1.9,-0.6 -1.9,-0.6 -2.1,1.3 -0.1,1.3 -0.1,1.3 1.3,1.8 z"
   id="path4" /><path
   d="m 266.1,102.8 c -1.2,-0.4 -2.4,-0.5 -3.6,-0.5 -4.7,0 -9.2,0.8 -13.7,1.9 -3.3,0.8 -6.5,1.8 -9.6,3.3 -0.1,-2.4 -1.5,-3.9 -3.4,-5 -1.5,-0.9 -3.3,-1.3 -5,-1.6 -1.9,-0.3 -3.6,-0.9 -4.9,-2.5 -0.4,-0.5 -0.9,-0.8 -1.5,-1.1 -1.8,-0.8 -2.6,-0.6 -3.7,1 -2.8,4.1 -4.9,8.5 -5.5,13.5 -0.6,5 0.1,9.8 0.9,14.7 0.1,0.4 0,0.6 -0.2,0.9 -2.3,3.8 -5.2,7.2 -8.6,10.2 -4.1,3.7 -8.9,5.8 -14.5,6 -1.1,0 -1.5,-0.3 -1.5,-1.5 0.1,-4 -0.5,-8 -1.6,-11.8 -3,-9.9 -8.9,-17.9 -16.6,-24.6 -3.3,-2.9 -6.8,-5.3 -10.5,-7.5 -1,-0.6 -1.2,-1.1 -0.8,-2.2 1.6,-4.6 2.4,-9.4 2.6,-14.3 0.2,-6.4 -1.1,-12.5 -3,-18.5 -1.8,-5.7 -4.1,-11.2 -7.9,-15.9 -0.6,-0.7 -0.8,-1.4 -0.9,-2.2 -0.1,-0.7 -0.1,-1.3 -0.2,-2 -0.5,-3.5 -1.4,-6.8 -3.3,-9.8 -2.5,-4 -6,-6.5 -10.8,-6.7 -6.1,-0.3 -11.2,2.2 -15.1,6.9 -0.5,0.6 -1,0.9 -1.7,0.9 -1.6,0.1 -3.2,0.3 -4.8,0.7 -6.6,1.3 -12.7,3.8 -18.4,7.2 -0.5,0.3 -0.7,0.3 -1.1,-0.1 -0.8,-0.8 -1.7,-1.4 -2.7,-2 -8.6,-4.9 -17.3,0.1 -19.8,7.3 -1.2,3.4 -1.2,7.1 -0.9,10.7 0.2,2.3 0.6,4.5 1.9,6.4 0.4,0.5 0.4,0.8 0,1.3 -2.1,3.3 -2.5,6.8 -1.7,10.5 0.5,2.7 1.1,5.3 1.2,8.1 0.1,2.5 0.4,5.1 1.1,7.5 0.2,0.6 0.1,0.9 -0.2,1.4 -2.3,3.2 -2.6,6.6 -1.1,10.2 0.8,1.8 1.8,3.5 3.1,5 1.1,1.4 2.3,2.7 3.5,4 -1.4,0.9 -2.6,1.9 -3.7,3.1 -0.4,0.4 -0.7,0.8 -0.6,1.3 0.1,0.5 -0.2,0.6 -0.6,0.7 -1.7,0.3 -3.3,0.7 -5,1.1 -5.6,1.2 -10.9,3 -15.5,6.4 -5.9,4.3 -10.3,9.9 -14,16.1 -3.4,5.7 -5.3,11.9 -5.6,18.6 -0.1,2.7 0,5.4 -0.3,8.1 -0.1,0.7 -0.3,1 -0.8,1.3 -1.2,0.7 -2.4,1.6 -3.5,2.5 -2,1.7 -3.3,3.6 -3.2,6.4 0.2,3.3 1.4,5.9 4,7.9 2.3,1.8 5,2.7 7.8,3.4 5,1.2 10.1,1.4 15.2,1.3 0.7,0 1.2,0.2 1.7,0.7 2.8,2.8 5.7,5.4 8.7,7.8 -0.1,0.2 -0.2,0.5 -0.3,1 -0.5,1.9 -1.1,6 -1.5,8 -0.8,3.6 -1.6,7.2 -1.9,11 -0.7,8.1 1.3,15.4 5.8,22 2.1,3.1 4.7,5.7 6.9,8.7 0.3,0.4 0.8,0.8 1.2,1.1 2.6,1.9 5.7,1.3 7.3,-1.4 0.4,-0.7 0.7,-1.4 1,-2.1 0.9,-2.7 1.2,-5.4 1.4,-8.2 0.2,-3.5 1.3,-6.7 3.6,-9.4 1.2,-1.4 2.4,-2.8 3.6,-4.2 2,-2.4 3.6,-5 4,-8.2 0.1,-0.6 0.4,-0.4 0.8,-0.3 1.8,0.6 3.6,1.1 5.5,1.6 7.2,1.9 14.5,3 22,2.2 2.5,-0.3 6.8,-0.3 9.3,0.2 0,0 0,0 0,0 5,6.7 10.4,12.9 16.8,18.3 3.2,2.7 6.7,5.2 10.7,6.7 2.9,1.1 6.9,0.8 8.7,0.3 3.1,-1 5.6,-3.2 5.8,-6.5 0.1,-3.2 -1,-6.1 -2.1,-8.9 -1.6,-3.9 -3.7,-7.5 -5.8,-11.2 -0.2,-0.3 -0.6,-0.6 0.2,-0.8 3.1,-1 17.4,-7.7 20.3,-9.1 8.6,-4.1 16.7,-9.9 20.5,-12.8 7.6,-5.9 14.7,-14.7 18.4,-23.6 3.4,-8.3 4.6,-17.1 5.4,-26 0.4,-4.5 0.9,-8.9 1.3,-13.4 0,-0.4 0.2,-0.5 0.5,-0.5 5.9,-0.6 11.3,-2.8 16.4,-5.8 2.1,-1.2 3.7,-3 4.7,-5.1 0.9,-1.7 1.7,-3.5 2.5,-5.2 0.9,-2 2.2,-3.5 4,-4.7 0.8,-0.5 1.6,-1.1 2.4,-1.7 1.2,-0.9 2.4,-1.9 3.2,-3.3 0.7,-2.2 -0.1,-4.3 -2.7,-5.2 z m -99.3,17.3 c 1.2,-5.4 0.4,-10.6 -1.5,-15.6 -0.1,-0.3 -0.2,-0.5 -0.2,-0.9 6.6,4.4 12.2,9.8 16.5,16.5 4.6,7.1 6.5,14.6 6.5,20.1 0,0 0,0.1 -0.1,0.1 -1.9,-0.7 -3.9,-1.1 -5.9,-1.2 -6.5,-0.4 -12.7,0.6 -18.6,3.4 -1.4,0.7 -2.7,1.6 -3.7,2.9 -0.2,0.2 -0.3,0.5 -0.7,0.3 -2.2,-1 -4.3,-2 -6.6,-3 -0.1,0 -0.1,-0.1 0,-0.1 2.8,-1.1 4.9,-2.9 6.5,-5.2 3.6,-5.3 6.4,-11 7.8,-17.3 z M 79.2,104.6 c -1.1,-1.6 -1.9,-3.3 -1.9,-5.3 0,-1.7 0.7,-3.2 1.8,-4.6 0.3,0.6 0.6,1.1 0.9,1.6 1.1,1.9 2.5,3.7 4.3,5.1 3.2,2.3 6.9,2.2 9.9,-0.3 2.9,-2.4 4.4,-5.6 5.2,-9.2 0.9,-4.7 0.3,-9.1 -2.7,-13.1 -1.8,-2.3 -3.9,-4 -7,-4.1 -3.3,-0.1 -5.6,1.6 -7.5,4 -2.3,3 -3,6.3 -2.7,10 0,0.2 0.3,0.6 -0.1,0.7 C 78.9,89.5 79,89 79,88.7 78.7,85.8 78.4,82.9 78.1,80 c -0.2,-1.8 -0.6,-3.6 -1,-5.3 -0.4,-2.2 -0.2,-4.4 1,-6.4 2.4,-4.1 4.9,-8 8.2,-11.4 2.6,-2.7 5,-5.6 7.9,-7.9 7.3,-5.8 15.5,-9.6 24.7,-11.1 0.6,-0.1 1.2,-0.2 2,-0.3 -0.6,2.2 -0.5,4.2 0.4,6.2 0.4,0.8 1,1.3 1.9,1.2 0.7,-0.1 1.4,0.2 2,0.5 3.2,1.5 5.9,3.6 8.7,5.7 3.4,2.6 6.8,5.3 10.1,7.9 1.6,1.3 2,1.2 3.5,-0.1 2.4,-2 4.2,-4.5 4.8,-7.7 1.1,1.6 2,3.2 2.8,4.9 2.7,6.1 4.9,12.4 5.6,19 0.8,6.9 0,13.6 -2.4,20.2 -0.2,0.5 -0.6,0.8 -0.9,1.2 -4.3,3.7 -9.3,6.1 -14.7,7.7 -3,0.9 -5.8,2.2 -8.5,3.7 -1.4,0.8 -2.6,1.8 -3.3,3.2 -1.2,2.5 -3.3,3.2 -5.9,3.2 -2.5,0.1 -5.1,0.1 -7.6,0.5 -4.2,0.7 -7.3,2.7 -8.5,7.1 -3,-3.8 -6.6,-6.9 -10.9,-9 -3.2,-1.6 -6.5,-2.5 -10.1,-2.3 -0.9,0.1 -1.8,0.2 -2.7,0.5 -0.3,0.1 -0.6,0.1 -0.8,-0.2 -1.8,-2.1 -3.7,-4.1 -5.2,-6.4 z m 14.6,112.2 c -0.2,1.9 -0.9,3.6 -2,5.2 -1.1,1.7 -2.5,3.2 -3.8,4.7 -2.3,2.7 -4.4,5.5 -5,9.1 -0.4,2.6 -0.6,5.2 -1,7.7 -0.2,1.6 -0.5,3.1 -1.3,4.5 -0.7,1.3 -1.8,1.4 -2.9,0.5 -0.4,-0.3 -0.7,-0.7 -1,-1.1 -1.3,-1.9 -2.9,-3.6 -4.4,-5.4 -6,-7.5 -8.2,-15.9 -6.7,-25.4 0.4,-2.6 1.1,-5.2 1.6,-7.8 0.3,-1.7 1,-5.2 1.3,-7 7.5,5.7 15.6,10.5 24.5,14 0.7,0.2 0.8,0.4 0.7,1 z M 235.5,114.9 c -0.3,1.2 -0.8,2.1 -1.7,2.9 -1.1,1 -2.2,2 -3.3,3.1 -2.1,2.1 -3.1,4.7 -3.1,7.7 0,2.3 1.1,3.9 3.2,4.7 0.5,0.2 0.7,0.4 0.6,1 -0.8,7.1 -1.2,14.2 -2.2,21.2 -1,7.4 -2.7,14.6 -6.3,21.2 -3.5,6.7 -8.6,12 -14.4,16.8 -6.7,5.4 -13.3,10.7 -33.4,19.7 -2.5,1.1 -5.1,2.3 -7.7,3.1 -0.5,0.1 -1,0 -1.2,-0.4 -2.5,-3.7 -3.4,-7.9 -4,-12.2 -0.5,-3.7 -1,-7.5 -2.3,-11 -2.1,-5.8 -6.1,-9.4 -12.3,-10.4 -1.8,-0.3 -1.8,-0.3 -2.1,1.6 -0.2,1.3 -0.2,1.4 1.1,1.6 6.3,0.8 9.4,4.8 10.9,10.6 0.9,3.4 1.2,6.8 1.8,10.3 0.6,3.7 1.6,7.1 3.6,10.4 2.9,4.9 5.9,9.8 8.2,15 1.1,2.5 2.1,4.9 2.3,7.7 0.2,2.5 -2.3,3.8 -2.4,3.9 -2.3,1.3 -5.8,0.8 -8,0 -3.1,-1.2 -5.8,-3.1 -8.3,-5.2 -9.3,-7.8 -16.9,-17.1 -23.1,-27.6 -2.6,-4.4 -3,-9.3 -2.5,-14.3 0.4,-4.2 1.6,-8.3 3.3,-12.2 0.2,-0.5 0.2,-0.8 -0.3,-0.9 -0.8,-0.3 -1.7,-1.2 -2.4,-0.8 -0.6,0.3 -0.8,1.4 -1.1,2.2 -0.7,1.7 -1.2,3.5 -1.7,5.3 -0.4,-0.2 -0.8,-0.4 -1,-0.4 -1.7,-0.7 -3.3,-1.5 -5,-2.2 -4.6,-2 -9.2,-3.7 -13.6,-6.2 -3.6,-2 -6.9,-4.4 -9.5,-7.6 -0.3,-0.4 -0.7,-0.6 -0.4,-1.3 1,-2.4 0.8,-4.7 -0.8,-6.7 -1.8,-2.3 -4.4,-3 -7.2,-3.1 -4.1,-0.1 -9.1,2.3 -9.9,8.4 -0.6,5 2.6,8.3 7.5,7.5 2.6,-0.4 5,-1.4 7.3,-2.9 0.3,-0.2 0.5,-0.4 0.9,0 3.6,4.5 8.3,7.5 13.4,10 4.7,2.3 9.5,4.1 14.2,6.2 0.6,0.3 2.3,1 3.4,1.4 -0.6,3.3 -0.8,6.7 -0.4,10.2 0.3,3.2 1.4,6.2 2.9,9 1.1,2 2.3,3.9 3.6,5.9 -1.4,0 -2.7,-0.2 -4,-0.1 -2.6,0.2 -5.3,0.3 -7.9,0.4 -5.3,0.2 -10.5,-1 -15.6,-2.2 -2.3,-0.6 -4.6,-1.3 -6.9,-2.1 -0.4,-0.2 -0.3,-0.1 -0.9,-0.3 -0.5,-0.2 -0.6,-0.3 -1.1,-0.5 -0.6,-0.2 -0.6,-0.2 -1.3,-0.5 -0.4,-0.1 -0.8,-0.3 -1.2,-0.5 -8.3,-3.4 -15.9,-8 -23,-13.5 -4,-3.1 -7.7,-6.4 -11.3,-10 -0.6,-0.6 -1.4,-0.9 -2.2,-0.9 -4.7,0.1 -9.4,0 -14,-0.9 -2.4,-0.5 -4.8,-1.1 -7,-2.4 -1.3,-0.8 -2.4,-1.7 -3.1,-3.2 1.5,0.3 2.9,0.6 4.4,0.8 4.4,0.4 8.9,0.1 13.3,-0.4 4.9,-0.6 9.8,-1.5 14.5,-2.8 3.6,-1 7,-2.2 10.2,-4.1 0.2,-0.1 0.5,-0.3 0.8,-0.5 0.6,-0.4 0.6,-0.4 0.8,-0.5 0.3,-0.2 0.9,-0.6 1,-0.9 0.2,-0.4 0.3,-0.5 -0.1,-1 -0.8,-0.9 -2.4,-1.2 -3.1,-0.7 -3.8,2.8 -8.3,4 -12.8,5.1 -7.8,1.9 -15.7,2.9 -23.8,2.6 -1.4,-0.1 -2.9,-0.3 -4.2,-0.8 -2,-0.7 -1.9,-1 -0.5,-2.5 1.3,-1.4 2.8,-2.6 4.5,-3.4 2.1,-1.1 1.9,-2.9 2,-5.4 0.1,-1.6 0.1,-3.3 0.1,-4.9 0,-7.2 2.1,-13.7 5.9,-19.7 3.3,-5.3 7.2,-10.1 12.2,-13.9 4.3,-3.2 9.1,-4.9 14.2,-6 2.5,-0.5 4.9,-1.1 7.4,-1.7 0.3,-0.1 0.6,-0.1 0.8,0.1 3.6,2.3 7.6,3.4 11.7,4.1 3.8,0.7 7.6,1 11.5,0.6 1.8,-0.2 3.7,-0.4 5.3,-1.4 0.1,2.5 1,4.7 2.4,6.7 2.9,4.2 6.8,7.3 11.4,9.4 3.2,1.5 6.3,1.2 9.5,0.1 1.8,-0.6 3.6,-1.3 5.6,-1.4 1.2,0 2.2,0.3 3.1,0.9 0.7,0.5 1.4,1 2.1,1.6 1.7,1.2 2.7,1.6 4.4,2.7 1.2,0.6 1.4,0.8 2.1,1.1 2.4,1.1 4.7,2.2 7.1,3.2 0.6,0.3 0.9,0.6 1.1,1.3 0.5,2.4 1.6,4.5 2.7,6.7 0.8,1.6 1.7,3.2 2.5,4.8 1.8,3.4 2,7.1 1.5,10.9 -0.6,4.6 -1.9,9 -2.7,13.6 -0.5,3 -0.9,6.1 -0.4,9.2 0.1,0.5 0.3,1 0.6,1.4 2,2.7 4.4,4.8 8,4.9 2.9,0.1 5.6,-0.5 8.4,-1.1 4.6,-1 9,-2.4 12.9,-5 1.9,-1.2 3.5,-2.6 5.1,-4.2 2.2,-2.3 2.5,-5.3 1.2,-8.2 -1.5,-3.5 -2.3,-7.1 0,-10.8 1.8,-2.8 2.6,-6 2.2,-9.4 -0.3,-2.6 -1.2,-5 -2.1,-7.4 -1,-2.7 -2.2,-5.4 -3.6,-8 1.8,-0.2 3.5,-0.4 5.2,-0.9 5.8,-1.7 10.4,-5.3 14.4,-9.9 1.9,-2.1 3.6,-4.4 5.1,-6.8 5.2,-8 2.9,-5.5 10.2,-10.9 1.7,-1.3 3.5,-2.5 5.2,-3.8 0.2,-0.2 0.4,-0.3 0.7,-0.3 0.8,-0.4 1.1,-0.3 0.9,0.4 z M 88.9,170.7 c 1.1,0.9 2.3,1.3 3.9,1.2 -1.9,1.4 -3.9,2.3 -6,2.7 -0.7,0.1 -1.5,0.3 -2.2,0.1 -1.3,-0.3 -1.9,-0.8 -2.1,-2.1 -0.5,-4.1 2,-7.2 6.2,-7.2 -1.9,1.7 -1.9,3.6 0.2,5.3 z"
   id="path6" /></g>
</svg>
