<?xml version="1.0" encoding="UTF-8" standalone="no"?>
<svg
   version="1.1"
   x="0px"
   y="0px"
   viewBox="0 0 68109.945 63966.168"
   xml:space="preserve"
   id="svg10"
   width="68109.945"
   height="63966.168"
   xmlns="http://www.w3.org/2000/svg"
   xmlns:svg="http://www.w3.org/2000/svg"><defs
   id="defs14" />
	<g
   id="g8"
   transform="translate(-8163.272,-7534.2393)">
		
		
		
	<path
   d="m 122.2,92 c 2.4,-0.5 4.9,-1.2 7.3,-1.8 4.5,-1.2 9,-2.2 13.6,-2.3 0.7,0 1.4,0.1 2.2,0.1 0.7,0 1.3,-0.1 1.7,-0.7 0.8,-1.3 1.7,-2.7 2.2,-4.2 0.6,-1.9 0.2,-3.6 -1.3,-5 -0.7,-0.7 -1.6,-1.1 -2.6,-1.5 -1.9,-0.7 -3.9,-0.9 -5.9,-1.1 -2.5,-0.2 -4.6,-0.9 -6.5,-2.7 -1,-1 -2.1,-1.9 -3.1,-2.8 -2.1,-1.9 -4.1,-3.7 -6.7,-5 -2,-1 -4.1,-1.5 -6.3,-0.9 -3.6,0.9 -6.3,3.1 -7.8,6.4 -2.9,6.3 -1.8,12.3 2.5,17.7 2.7,3.6 6.3,4.7 10.7,3.8 z"
   id="path2" /><path
   d="m 104.2,103.2 c 0.3,0.1 0.7,0.2 1,0.4 1.3,0.5 2.5,1.2 3.9,1.5 1.5,0.4 2.8,0.5 4,-0.9 1.6,-1.9 3.3,-3.8 4.8,-5.8 0.3,-0.4 0.4,-0.7 -0.2,-0.9 -0.6,-0.2 -1.1,-0.5 -1.7,-0.9 -0.5,-0.3 -0.7,-0.2 -1.1,0.3 -0.9,1.3 -1.8,2.4 -2.9,3.6 -0.3,-1.3 -0.9,-2.3 -1.4,-3.4 -0.5,-1.1 -0.7,-2.2 -0.1,-3.4 0.3,-0.6 0.3,-1.3 -0.2,-1.9 -0.5,-0.6 -1.2,-0.6 -1.9,-0.4 -1.2,0.4 -2.4,0.9 -3.6,1.5 -0.4,0.2 -0.4,0.3 -0.3,0.7 0.3,0.7 0.7,1.4 0.9,2.1 0.2,0.4 0.4,0.5 0.7,0.3 0.2,-0.1 0.3,-0.2 0.6,-0.2 0.1,2 1.4,3.6 1.9,5.7 -1.3,-0.5 -2.4,-1 -3.6,-1.4 -1.9,-0.6 -1.9,-0.6 -2.1,1.3 -0.1,1.3 -0.1,1.3 1.3,1.8 z"
   id="path4" /><path
   d="m 266.1,102.8 c -1.2,-0.4 -2.4,-0.5 -3.6,-0.5 -4.7,0 -9.2,0.8 -13.7,1.9 -3.3,0.8 -6.5,1.8 -9.6,3.3 -0.1,-2.4 -1.5,-3.9 -3.4,-5 -1.5,-0.9 -3.3,-1.3 -5,-1.6 -1.9,-0.3 -3.6,-0.9 -4.9,-2.5 -0.4,-0.5 -0.9,-0.8 -1.5,-1.1 -1.8,-0.8 -2.6,-0.6 -3.7,1 -2.8,4.1 -4.9,8.5 -5.5,13.5 -0.6,5 0.1,9.8 0.9,14.7 0.1,0.4 0,0.6 -0.2,0.9 -2.3,3.8 -5.2,7.2 -8.6,10.2 -4.1,3.7 -8.9,5.8 -14.5,6 -1.1,0 -1.5,-0.3 -1.5,-1.5 0.1,-4 -0.5,-8 -1.6,-11.8 -3,-9.9 -8.9,-17.9 -16.6,-24.6 -3.3,-2.9 -6.8,-5.3 -10.5,-7.5 -1,-0.6 -1.2,-1.1 -0.8,-2.2 1.6,-4.6 2.4,-9.4 2.6,-14.3 0.2,-6.4 -1.1,-12.5 -3,-18.5 -1.8,-5.7 -4.1,-11.2 -7.9,-15.9 -0.6,-0.7 -0.8,-1.4 -0.9,-2.2 -0.1,-0.7 -0.1,-1.3 -0.2,-2 -0.5,-3.5 -1.4,-6.8 -3.3,-9.8 -2.5,-4 -6,-6.5 -10.8,-6.7 -6.1,-0.3 -11.2,2.2 -15.1,6.9 -0.5,0.6 -1,0.9 -1.7,0.9 -1.6,0.1 -3.2,0.3 -4.8,0.7 -6.6,1.3 -12.7,3.8 -18.4,7.2 -0.5,0.3 -0.7,0.3 -1.1,-0.1 -0.8,-0.8 -1.7,-1.4 -2.7,-2 -8.6,-4.9 -17.3,0.1 -19.8,7.3 -1.2,3.4 -1.2,7.1 -0.9,10.7 0.2,2.3 0.6,4.5 1.9,6.4 0.4,0.5 0.4,0.8 0,1.3 -2.1,3.3 -2.5,6.8 -1.7,10.5 0.5,2.7 1.1,5.3 1.2,8.1 0.1,2.5 0.4,5.1 1.1,7.5 0.2,0.6 0.1,0.9 -0.2,1.4 -2.3,3.2 -2.6,6.6 -1.1,10.2 0.8,1.8 1.8,3.5 3.1,5 1.1,1.4 2.3,2.7 3.5,4 -1.4,0.9 -2.6,1.9 -3.7,3.1 -0.4,0.4 -0.7,0.8 -0.6,1.3 0.1,0.5 -0.2,0.6 -0.6,0.7 -1.7,0.3 -3.3,0.7 -5,1.1 -5.6,1.2 -10.9,3 -15.5,6.4 -5.9,4.3 -10.3,9.9 -14,16.1 -3.4,5.7 -5.3,11.9 -5.6,18.6 -0.1,2.7 0,5.4 -0.3,8.1 -0.1,0.7 -0.3,1 -0.8,1.3 -1.2,0.7 -2.4,1.6 -3.5,2.5 -2,1.7 -3.3,3.6 -3.2,6.4 0.2,3.3 1.4,5.9 4,7.9 2.3,1.8 5,2.7 7.8,3.4 5,1.2 10.1,1.4 15.2,1.3 0.7,0 1.2,0.2 1.7,0.7 2.8,2.8 5.7,5.4 8.7,7.8 -0.1,0.2 -0.2,0.5 -0.3,1 -0.5,1.9 -1.1,6 -1.5,8 -0.8,3.6 -1.6,7.2 -1.9,11 -0.7,8.1 1.3,15.4 5.8,22 2.1,3.1 4.7,5.7 6.9,8.7 0.3,0.4 0.8,0.8 1.2,1.1 2.6,1.9 5.7,1.3 7.3,-1.4 0.4,-0.7 0.7,-1.4 1,-2.1 0.9,-2.7 1.2,-5.4 1.4,-8.2 0.2,-3.5 1.3,-6.7 3.6,-9.4 1.2,-1.4 2.4,-2.8 3.6,-4.2 2,-2.4 3.6,-5 4,-8.2 0.1,-0.6 0.4,-0.4 0.8,-0.3 1.8,0.6 3.6,1.1 5.5,1.6 7.2,1.9 14.5,3 22,2.2 2.5,-0.3 6.8,-0.3 9.3,0.2 0,0 0,0 0,0 5,6.7 10.4,12.9 16.8,18.3 3.2,2.7 6.7,5.2 10.7,6.7 2.9,1.1 6.9,0.8 8.7,0.3 3.1,-1 5.6,-3.2 5.8,-6.5 0.1,-3.2 -1,-6.1 -2.1,-8.9 -1.6,-3.9 -3.7,-7.5 -5.8,-11.2 -0.2,-0.3 -0.6,-0.6 0.2,-0.8 3.1,-1 17.4,-7.7 20.3,-9.1 8.6,-4.1 16.7,-9.9 20.5,-12.8 7.6,-5.9 14.7,-14.7 18.4,-23.6 3.4,-8.3 4.6,-17.1 5.4,-26 0.4,-4.5 0.9,-8.9 1.3,-13.4 0,-0.4 0.2,-0.5 0.5,-0.5 5.9,-0.6 11.3,-2.8 16.4,-5.8 2.1,-1.2 3.7,-3 4.7,-5.1 0.9,-1.7 1.7,-3.5 2.5,-5.2 0.9,-2 2.2,-3.5 4,-4.7 0.8,-0.5 1.6,-1.1 2.4,-1.7 1.2,-0.9 2.4,-1.9 3.2,-3.3 0.7,-2.2 -0.1,-4.3 -2.7,-5.2 z m -99.3,17.3 c 1.2,-5.4 0.4,-10.6 -1.5,-15.6 -0.1,-0.3 -0.2,-0.5 -0.2,-0.9 6.6,4.4 12.2,9.8 16.5,16.5 4.6,7.1 6.5,14.6 6.5,20.1 0,0 0,0.1 -0.1,0.1 -1.9,-0.7 -3.9,-1.1 -5.9,-1.2 -6.5,-0.4 -12.7,0.6 -18.6,3.4 -1.4,0.7 -2.7,1.6 -3.7,2.9 -0.2,0.2 -0.3,0.5 -0.7,0.3 -2.2,-1 -4.3,-2 -6.6,-3 -0.1,0 -0.1,-0.1 0,-0.1 2.8,-1.1 4.9,-2.9 6.5,-5.2 3.6,-5.3 6.4,-11 7.8,-17.3 z M 79.2,104.6 c -1.1,-1.6 -1.9,-3.3 -1.9,-5.3 0,-1.7 0.7,-3.2 1.8,-4.6 0.3,0.6 0.6,1.1 0.9,1.6 1.1,1.9 2.5,3.7 4.3,5.1 3.2,2.3 6.9,2.2 9.9,-0.3 2.9,-2.4 4.4,-5.6 5.2,-9.2 0.9,-4.7 0.3,-9.1 -2.7,-13.1 -1.8,-2.3 -3.9,-4 -7,-4.1 -3.3,-0.1 -5.6,1.6 -7.5,4 -2.3,3 -3,6.3 -2.7,10 0,0.2 0.3,0.6 -0.1,0.7 C 78.9,89.5 79,89 79,88.7 78.7,85.8 78.4,82.9 78.1,80 c -0.2,-1.8 -0.6,-3.6 -1,-5.3 -0.4,-2.2 -0.2,-4.4 1,-6.4 2.4,-4.1 4.9,-8 8.2,-11.4 2.6,-2.7 5,-5.6 7.9,-7.9 7.3,-5.8 15.5,-9.6 24.7,-11.1 0.6,-0.1 1.2,-0.2 2,-0.3 -0.6,2.2 -0.5,4.2 0.4,6.2 0.4,0.8 1,1.3 1.9,1.2 0.7,-0.1 1.4,0.2 2,0.5 3.2,1.5 5.9,3.6 8.7,5.7 3.4,2.6 6.8,5.3 10.1,7.9 1.6,1.3 2,1.2 3.5,-0.1 2.4,-2 4.2,-4.5 4.8,-7.7 1.1,1.6 2,3.2 2.8,4.9 2.7,6.1 4.9,12.4 5.6,19 0.8,6.9 0,13.6 -2.4,20.2 -0.2,0.5 -0.6,0.8 -0.9,1.2 -4.3,3.7 -9.3,6.1 -14.7,7.7 -3,0.9 -5.8,2.2 -8.5,3.7 -1.4,0.8 -2.6,1.8 -3.3,3.2 -1.2,2.5 -3.3,3.2 -5.9,3.2 -2.5,0.1 -5.1,0.1 -7.6,0.5 -4.2,0.7 -7.3,2.7 -8.5,7.1 -3,-3.8 -6.6,-6.9 -10.9,-9 -3.2,-1.6 -6.5,-2.5 -10.1,-2.3 -0.9,0.1 -1.8,0.2 -2.7,0.5 -0.3,0.1 -0.6,0.1 -0.8,-0.2 -1.8,-2.1 -3.7,-4.1 -5.2,-6.4 z m 14.6,112.2 c -0.2,1.9 -0.9,3.6 -2,5.2 -1.1,1.7 -2.5,3.2 -3.8,4.7 -2.3,2.7 -4.4,5.5 -5,9.1 -0.4,2.6 -0.6,5.2 -1,7.7 -0.2,1.6 -0.5,3.1 -1.3,4.5 -0.7,1.3 -1.8,1.4 -2.9,0.5 -0.4,-0.3 -0.7,-0.7 -1,-1.1 -1.3,-1.9 -2.9,-3.6 -4.4,-5.4 -6,-7.5 -8.2,-15.9 -6.7,-25.4 0.4,-2.6 1.1,-5.2 1.6,-7.8 0.3,-1.7 1,-5.2 1.3,-7 7.5,5.7 15.6,10.5 24.5,14 0.7,0.2 0.8,0.4 0.7,1 z M 235.5,114.9 c -0.3,1.2 -0.8,2.1 -1.7,2.9 -1.1,1 -2.2,2 -3.3,3.1 -2.1,2.1 -3.1,4.7 -3.1,7.7 0,2.3 1.1,3.9 3.2,4.7 0.5,0.2 0.7,0.4 0.6,1 -0.8,7.1 -1.2,14.2 -2.2,21.2 -1,7.4 -2.7,14.6 -6.3,21.2 -3.5,6.7 -8.6,12 -14.4,16.8 -6.7,5.4 -13.3,10.7 -33.4,19.7 -2.5,1.1 -5.1,2.3 -7.7,3.1 -0.5,0.1 -1,0 -1.2,-0.4 -2.5,-3.7 -3.4,-7.9 -4,-12.2 -0.5,-3.7 -1,-7.5 -2.3,-11 -2.1,-5.8 -6.1,-9.4 -12.3,-10.4 -1.8,-0.3 -1.8,-0.3 -2.1,1.6 -0.2,1.3 -0.2,1.4 1.1,1.6 6.3,0.8 9.4,4.8 10.9,10.6 0.9,3.4 1.2,6.8 1.8,10.3 0.6,3.7 1.6,7.1 3.6,10.4 2.9,4.9 5.9,9.8 8.2,15 1.1,2.5 2.1,4.9 2.3,7.7 0.2,2.5 -2.3,3.8 -2.4,3.9 -2.3,1.3 -5.8,0.8 -8,0 -3.1,-1.2 -5.8,-3.1 -8.3,-5.2 -9.3,-7.8 -16.9,-17.1 -23.1,-27.6 -2.6,-4.4 -3,-9.3 -2.5,-14.3 0.4,-4.2 1.6,-8.3 3.3,-12.2 0.2,-0.5 0.2,-0.8 -0.3,-0.9 -0.8,-0.3 -1.7,-1.2 -2.4,-0.8 -0.6,0.3 -0.8,1.4 -1.1,2.2 -0.7,1.7 -1.2,3.5 -1.7,5.3 -0.4,-0.2 -0.8,-0.4 -1,-0.4 -1.7,-0.7 -3.3,-1.5 -5,-2.2 -4.6,-2 -9.2,-3.7 -13.6,-6.2 -3.6,-2 -6.9,-4.4 -9.5,-7.6 -0.3,-0.4 -0.7,-0.6 -0.4,-1.3 1,-2.4 0.8,-4.7 -0.8,-6.7 -1.8,-2.3 -4.4,-3 -7.2,-3.1 -4.1,-0.1 -9.1,2.3 -9.9,8.4 -0.6,5 2.6,8.3 7.5,7.5 2.6,-0.4 5,-1.4 7.3,-2.9 0.3,-0.2 0.5,-0.4 0.9,0 3.6,4.5 8.3,7.5 13.4,10 4.7,2.3 9.5,4.1 14.2,6.2 0.6,0.3 2.3,1 3.4,1.4 -0.6,3.3 -0.8,6.7 -0.4,10.2 0.3,3.2 1.4,6.2 2.9,9 1.1,2 2.3,3.9 3.6,5.9 -1.4,0 -2.7,-0.2 -4,-0.1 -2.6,0.2 -5.3,0.3 -7.9,0.4 -5.3,0.2 -10.5,-1 -15.6,-2.2 -2.3,-0.6 -4.6,-1.3 -6.9,-2.1 -0.4,-0.2 -0.3,-0.1 -0.9,-0.3 -0.5,-0.2 -0.6,-0.3 -1.1,-0.5 -0.6,-0.2 -0.6,-0.2 -1.3,-0.5 -0.4,-0.1 -0.8,-0.3 -1.2,-0.5 -8.3,-3.4 -15.9,-8 -23,-13.5 -4,-3.1 -7.7,-6.4 -11.3,-10 -0.6,-0.6 -1.4,-0.9 -2.2,-0.9 -4.7,0.1 -9.4,0 -14,-0.9 -2.4,-0.5 -4.8,-1.1 -7,-2.4 -1.3,-0.8 -2.4,-1.7 -3.1,-3.2 1.5,0.3 2.9,0.6 4.4,0.8 4.4,0.4 8.9,0.1 13.3,-0.4 4.9,-0.6 9.8,-1.5 14.5,-2.8 3.6,-1 7,-2.2 10.2,-4.1 0.2,-0.1 0.5,-0.3 0.8,-0.5 0.6,-0.4 0.6,-0.4 0.8,-0.5 0.3,-0.2 0.9,-0.6 1,-0.9 0.2,-0.4 0.3,-0.5 -0.1,-1 -0.8,-0.9 -2.4,-1.2 -3.1,-0.7 -3.8,2.8 -8.3,4 -12.8,5.1 -7.8,1.9 -15.7,2.9 -23.8,2.6 -1.4,-0.1 -2.9,-0.3 -4.2,-0.8 -2,-0.7 -1.9,-1 -0.5,-2.5 1.3,-1.4 2.8,-2.6 4.5,-3.4 2.1,-1.1 1.9,-2.9 2,-5.4 0.1,-1.6 0.1,-3.3 0.1,-4.9 0,-7.2 2.1,-13.7 5.9,-19.7 3.3,-5.3 7.2,-10.1 12.2,-13.9 4.3,-3.2 9.1,-4.9 14.2,-6 2.5,-0.5 4.9,-1.1 7.4,-1.7 0.3,-0.1 0.6,-0.1 0.8,0.1 3.6,2.3 7.6,3.4 11.7,4.1 3.8,0.7 7.6,1 11.5,0.6 1.8,-0.2 3.7,-0.4 5.3,-1.4 0.1,2.5 1,4.7 2.4,6.7 2.9,4.2 6.8,7.3 11.4,9.4 3.2,1.5 6.3,1.2 9.5,0.1 1.8,-0.6 3.6,-1.3 5.6,-1.4 1.2,0 2.2,0.3 3.1,0.9 0.7,0.5 1.4,1 2.1,1.6 1.7,1.2 2.7,1.6 4.4,2.7 1.2,0.6 1.4,0.8 2.1,1.1 2.4,1.1 4.7,2.2 7.1,3.2 0.6,0.3 0.9,0.6 1.1,1.3 0.5,2.4 1.6,4.5 2.7,6.7 0.8,1.6 1.7,3.2 2.5,4.8 1.8,3.4 2,7.1 1.5,10.9 -0.6,4.6 -1.9,9 -2.7,13.6 -0.5,3 -0.9,6.1 -0.4,9.2 0.1,0.5 0.3,1 0.6,1.4 2,2.7 4.4,4.8 8,4.9 2.9,0.1 5.6,-0.5 8.4,-1.1 4.6,-1 9,-2.4 12.9,-5 1.9,-1.2 3.5,-2.6 5.1,-4.2 2.2,-2.3 2.5,-5.3 1.2,-8.2 -1.5,-3.5 -2.3,-7.1 0,-10.8 1.8,-2.8 2.6,-6 2.2,-9.4 -0.3,-2.6 -1.2,-5 -2.1,-7.4 -1,-2.7 -2.2,-5.4 -3.6,-8 1.8,-0.2 3.5,-0.4 5.2,-0.9 5.8,-1.7 10.4,-5.3 14.4,-9.9 1.9,-2.1 3.6,-4.4 5.1,-6.8 5.2,-8 2.9,-5.5 10.2,-10.9 1.7,-1.3 3.5,-2.5 5.2,-3.8 0.2,-0.2 0.4,-0.3 0.7,-0.3 0.8,-0.4 1.1,-0.3 0.9,0.4 z M 88.9,170.7 c 1.1,0.9 2.3,1.3 3.9,1.2 -1.9,1.4 -3.9,2.3 -6,2.7 -0.7,0.1 -1.5,0.3 -2.2,0.1 -1.3,-0.3 -1.9,-0.8 -2.1,-2.1 -0.5,-4.1 2,-7.2 6.2,-7.2 -1.9,1.7 -1.9,3.6 0.2,5.3 z"
   id="path6" /></g>
</svg>
